P3
64 64
255
0 1 2  3 4 5  6 7 8  9 10 11  12 13 14  15 16 17  18 19 20  21 22 23  24 25 26  27 28 29  30 31 32  33 34 35  36 37 38  39 40 41  42 43 44  45 46 47  48 49 50  51 52 53  54 55 56  57 58 59  60 61 62  63 0 1  2 3 4  5 6 7  8 9 10  11 12 13  14 15 16  17 18 19  20 21 22  23 24 25  26 27 28  29 30 31  32 33 34  35 36 37  38 39 40  41 42 43  44 45 46  47 48 49  50 51 52  53 54 55  56 57 58  59 60 61  62 63 0  1 2 3  4 5 6  7 8 9  10 11 12  13 14 15  16 17 18  19 20 21  22 23 24  25 26 27  28 29 30  31 32 33  34 35 36  37 38 39  40 41 42  43 44 45  46 47 48  49 50 51  52 53 54  55 56 57  58 59 60  61 62 63  
1 2 3  4 5 6  7 8 9  10 11 12  13 14 15  16 17 18  19 20 21  22 23 24  25 26 27  28 29 30  31 32 33  34 35 36  37 38 39  40 41 42  43 44 45  46 47 48  49 50 51  52 53 54  55 56 57  58 59 60  61 62 63  64 1 2  3 4 5  6 7 8  9 10 11  12 13 14  15 16 17  18 19 20  21 22 23  24 25 26  27 28 29  30 31 32  33 34 35  36 37 38  39 40 41  42 43 44  45 46 47  48 49 50  51 52 53  54 55 56  57 58 59  60 61 62  63 64 1  2 3 4  5 6 7  8 9 10  11 12 13  14 15 16  17 18 19  20 21 22  23 24 25  26 27 28  29 30 31  32 33 34  35 36 37  38 39 40  41 42 43  44 45 46  47 48 49  50 51 52  53 54 55  56 57 58  59 60 61  62 63 64  
2 3 4  5 6 7  8 9 10  11 12 13  14 15 16  17 18 19  20 21 22  23 24 25  26 27 28  29 30 31  32 33 34  35 36 37  38 39 40  41 42 43  44 45 46  47 48 49  50 51 52  53 54 55  56 57 58  59 60 61  62 63 64  65 2 3  4 5 6  7 8 9  10 11 12  13 14 15  16 17 18  19 20 21  22 23 24  25 26 27  28 29 30  31 32 33  34 35 36  37 38 39  40 41 42  43 44 45  46 47 48  49 50 51  52 53 54  55 56 57  58 59 60  61 62 63  64 65 2  3 4 5  6 7 8  9 10 11  12 13 14  15 16 17  18 19 20  21 22 23  24 25 26  27 28 29  30 31 32  33 34 35  36 37 38  39 40 41  42 43 44  45 46 47  48 49 50  51 52 53  54 55 56  57 58 59  60 61 62  63 64 65  
3 4 5  6 7 8  9 10 11  12 13 14  15 16 17  18 19 20  21 22 23  24 25 26  27 28 29  30 31 32  33 34 35  36 37 38  39 40 41  42 43 44  45 46 47  48 49 50  51 52 53  54 55 56  57 58 59  60 61 62  63 64 65  66 3 4  5 6 7  8 9 10  11 12 13  14 15 16  17 18 19  20 21 22  23 24 25  26 27 28  29 30 31  32 33 34  35 36 37  38 39 40  41 42 43  44 45 46  47 48 49  50 51 52  53 54 55  56 57 58  59 60 61  62 63 64  65 66 3  4 5 6  7 8 9  10 11 12  13 14 15  16 17 18  19 20 21  22 23 24  25 26 27  28 29 30  31 32 33  34 35 36  37 38 39  40 41 42  43 44 45  46 47 48  49 50 51  52 53 54  55 56 57  58 59 60  61 62 63  64 65 66  
4 5 6  7 8 9  10 11 12  13 14 15  16 17 18  19 20 21  22 23 24  25 26 27  28 29 30  31 32 33  34 35 36  37 38 39  40 41 42  43 44 45  46 47 48  49 50 51  52 53 54  55 56 57  58 59 60  61 62 63  64 65 66  67 4 5  6 7 8  9 10 11  12 13 14  15 16 17  18 19 20  21 22 23  24 25 26  27 28 29  30 31 32  33 34 35  36 37 38  39 40 41  42 43 44  45 46 47  48 49 50  51 52 53  54 55 56  57 58 59  60 61 62  63 64 65  66 67 4  5 6 7  8 9 10  11 12 13  14 15 16  17 18 19  20 21 22  23 24 25  26 27 28  29 30 31  32 33 34  35 36 37  38 39 40  41 42 43  44 45 46  47 48 49  50 51 52  53 54 55  56 57 58  59 60 61  62 63 64  65 66 67  
5 6 7  8 9 10  11 12 13  14 15 16  17 18 19  20 21 22  23 24 25  26 27 28  29 30 31  32 33 34  35 36 37  38 39 40  41 42 43  44 45 46  47 48 49  50 51 52  53 54 55  56 57 58  59 60 61  62 63 64  65 66 67  68 5 6  7 8 9  10 11 12  13 14 15  16 17 18  19 20 21  22 23 24  25 26 27  28 29 30  31 32 33  34 35 36  37 38 39  40 41 42  43 44 45  46 47 48  49 50 51  52 53 54  55 56 57  58 59 60  61 62 63  64 65 66  67 68 5  6 7 8  9 10 11  12 13 14  15 16 17  18 19 20  21 22 23  24 25 26  27 28 29  30 31 32  33 34 35  36 37 38  39 40 41  42 43 44  45 46 47  48 49 50  51 52 53  54 55 56  57 58 59  60 61 62  63 64 65  66 67 68  
6 7 8  9 10 11  12 13 14  15 16 17  18 19 20  21 22 23  24 25 26  27 28 29  30 31 32  33 34 35  36 37 38  39 40 41  42 43 44  45 46 47  48 49 50  51 52 53  54 55 56  57 58 59  60 61 62  63 64 65  66 67 68  69 6 7  8 9 10  11 12 13  14 15 16  17 18 19  20 21 22  23 24 25  26 27 28  29 30 31  32 33 34  35 36 37  38 39 40  41 42 43  44 45 46  47 48 49  50 51 52  53 54 55  56 57 58  59 60 61  62 63 64  65 66 67  68 69 6  7 8 9  10 11 12  13 14 15  16 17 18  19 20 21  22 23 24  25 26 27  28 29 30  31 32 33  34 35 36  37 38 39  40 41 42  43 44 45  46 47 48  49 50 51  52 53 54  55 56 57  58 59 60  61 62 63  64 65 66  67 68 69  
7 8 9  10 11 12  13 14 15  16 17 18  19 20 21  22 23 24  25 26 27  28 29 30  31 32 33  34 35 36  37 38 39  40 41 42  43 44 45  46 47 48  49 50 51  52 53 54  55 56 57  58 59 60  61 62 63  64 65 66  67 68 69  70 7 8  9 10 11  12 13 14  15 16 17  18 19 20  21 22 23  24 25 26  27 28 29  30 31 32  33 34 35  36 37 38  39 40 41  42 43 44  45 46 47  48 49 50  51 52 53  54 55 56  57 58 59  60 61 62  63 64 65  66 67 68  69 70 7  8 9 10  11 12 13  14 15 16  17 18 19  20 21 22  23 24 25  26 27 28  29 30 31  32 33 34  35 36 37  38 39 40  41 42 43  44 45 46  47 48 49  50 51 52  53 54 55  56 57 58  59 60 61  62 63 64  65 66 67  68 69 70  
8 9 10  11 12 13  14 15 16  17 18 19  20 21 22  23 24 25  26 27 28  29 30 31  32 33 34  35 36 37  38 39 40  41 42 43  44 45 46  47 48 49  50 51 52  53 54 55  56 57 58  59 60 61  62 63 64  65 66 67  68 69 70  71 8 9  10 11 12  13 14 15  16 17 18  19 20 21  22 23 24  25 26 27  28 29 30  31 32 33  34 35 36  37 38 39  40 41 42  43 44 45  46 47 48  49 50 51  52 53 54  55 56 57  58 59 60  61 62 63  64 65 66  67 68 69  70 71 8  9 10 11  12 13 14  15 16 17  18 19 20  21 22 23  24 25 26  27 28 29  30 31 32  33 34 35  36 37 38  39 40 41  42 43 44  45 46 47  48 49 50  51 52 53  54 55 56  57 58 59  60 61 62  63 64 65  66 67 68  69 70 71  
9 10 11  12 13 14  15 16 17  18 19 20  21 22 23  24 25 26  27 28 29  30 31 32  33 34 35  36 37 38  39 40 41  42 43 44  45 46 47  48 49 50  51 52 53  54 55 56  57 58 59  60 61 62  63 64 65  66 67 68  69 70 71  72 9 10  11 12 13  14 15 16  17 18 19  20 21 22  23 24 25  26 27 28  29 30 31  32 33 34  35 36 37  38 39 40  41 42 43  44 45 46  47 48 49  50 51 52  53 54 55  56 57 58  59 60 61  62 63 64  65 66 67  68 69 70  71 72 9  10 11 12  13 14 15  16 17 18  19 20 21  22 23 24  25 26 27  28 29 30  31 32 33  34 35 36  37 38 39  40 41 42  43 44 45  46 47 48  49 50 51  52 53 54  55 56 57  58 59 60  61 62 63  64 65 66  67 68 69  70 71 72  
10 11 12  13 14 15  16 17 18  19 20 21  22 23 24  25 26 27  28 29 30  31 32 33  34 35 36  37 38 39  40 41 42  43 44 45  46 47 48  49 50 51  52 53 54  55 56 57  58 59 60  61 62 63  64 65 66  67 68 69  70 71 72  73 10 11  12 13 14  15 16 17  18 19 20  21 22 23  24 25 26  27 28 29  30 31 32  33 34 35  36 37 38  39 40 41  42 43 44  45 46 47  48 49 50  51 52 53  54 55 56  57 58 59  60 61 62  63 64 65  66 67 68  69 70 71  72 73 10  11 12 13  14 15 16  17 18 19  20 21 22  23 24 25  26 27 28  29 30 31  32 33 34  35 36 37  38 39 40  41 42 43  44 45 46  47 48 49  50 51 52  53 54 55  56 57 58  59 60 61  62 63 64  65 66 67  68 69 70  71 72 73  
11 12 13  14 15 16  17 18 19  20 21 22  23 24 25  26 27 28  29 30 31  32 33 34  35 36 37  38 39 40  41 42 43  44 45 46  47 48 49  50 51 52  53 54 55  56 57 58  59 60 61  62 63 64  65 66 67  68 69 70  71 72 73  74 11 12  13 14 15  16 17 18  19 20 21  22 23 24  25 26 27  28 29 30  31 32 33  34 35 36  37 38 39  40 41 42  43 44 45  46 47 48  49 50 51  52 53 54  55 56 57  58 59 60  61 62 63  64 65 66  67 68 69  70 71 72  73 74 11  12 13 14  15 16 17  18 19 20  21 22 23  24 25 26  27 28 29  30 31 32  33 34 35  36 37 38  39 40 41  42 43 44  45 46 47  48 49 50  51 52 53  54 55 56  57 58 59  60 61 62  63 64 65  66 67 68  69 70 71  72 73 74  
12 13 14  15 16 17  18 19 20  21 22 23  24 25 26  27 28 29  30 31 32  33 34 35  36 37 38  39 40 41  42 43 44  45 46 47  48 49 50  51 52 53  54 55 56  57 58 59  60 61 62  63 64 65  66 67 68  69 70 71  72 73 74  75 12 13  14 15 16  17 18 19  20 21 22  23 24 25  26 27 28  29 30 31  32 33 34  35 36 37  38 39 40  41 42 43  44 45 46  47 48 49  50 51 52  53 54 55  56 57 58  59 60 61  62 63 64  65 66 67  68 69 70  71 72 73  74 75 12  13 14 15  16 17 18  19 20 21  22 23 24  25 26 27  28 29 30  31 32 33  34 35 36  37 38 39  40 41 42  43 44 45  46 47 48  49 50 51  52 53 54  55 56 57  58 59 60  61 62 63  64 65 66  67 68 69  70 71 72  73 74 75  
13 14 15  16 17 18  19 20 21  22 23 24  25 26 27  28 29 30  31 32 33  34 35 36  37 38 39  40 41 42  43 44 45  46 47 48  49 50 51  52 53 54  55 56 57  58 59 60  61 62 63  64 65 66  67 68 69  70 71 72  73 74 75  76 13 14  15 16 17  18 19 20  21 22 23  24 25 26  27 28 29  30 31 32  33 34 35  36 37 38  39 40 41  42 43 44  45 46 47  48 49 50  51 52 53  54 55 56  57 58 59  60 61 62  63 64 65  66 67 68  69 70 71  72 73 74  75 76 13  14 15 16  17 18 19  20 21 22  23 24 25  26 27 28  29 30 31  32 33 34  35 36 37  38 39 40  41 42 43  44 45 46  47 48 49  50 51 52  53 54 55  56 57 58  59 60 61  62 63 64  65 66 67  68 69 70  71 72 73  74 75 76  
14 15 16  17 18 19  20 21 22  23 24 25  26 27 28  29 30 31  32 33 34  35 36 37  38 39 40  41 42 43  44 45 46  47 48 49  50 51 52  53 54 55  56 57 58  59 60 61  62 63 64  65 66 67  68 69 70  71 72 73  74 75 76  77 14 15  16 17 18  19 20 21  22 23 24  25 26 27  28 29 30  31 32 33  34 35 36  37 38 39  40 41 42  43 44 45  46 47 48  49 50 51  52 53 54  55 56 57  58 59 60  61 62 63  64 65 66  67 68 69  70 71 72  73 74 75  76 77 14  15 16 17  18 19 20  21 22 23  24 25 26  27 28 29  30 31 32  33 34 35  36 37 38  39 40 41  42 43 44  45 46 47  48 49 50  51 52 53  54 55 56  57 58 59  60 61 62  63 64 65  66 67 68  69 70 71  72 73 74  75 76 77  
15 16 17  18 19 20  21 22 23  24 25 26  27 28 29  30 31 32  33 34 35  36 37 38  39 40 41  42 43 44  45 46 47  48 49 50  51 52 53  54 55 56  57 58 59  60 61 62  63 64 65  66 67 68  69 70 71  72 73 74  75 76 77  78 15 16  17 18 19  20 21 22  23 24 25  26 27 28  29 30 31  32 33 34  35 36 37  38 39 40  41 42 43  44 45 46  47 48 49  50 51 52  53 54 55  56 57 58  59 60 61  62 63 64  65 66 67  68 69 70  71 72 73  74 75 76  77 78 15  16 17 18  19 20 21  22 23 24  25 26 27  28 29 30  31 32 33  34 35 36  37 38 39  40 41 42  43 44 45  46 47 48  49 50 51  52 53 54  55 56 57  58 59 60  61 62 63  64 65 66  67 68 69  70 71 72  73 74 75  76 77 78  
16 17 18  19 20 21  22 23 24  25 26 27  28 29 30  31 32 33  34 35 36  37 38 39  40 41 42  43 44 45  46 47 48  49 50 51  52 53 54  55 56 57  58 59 60  61 62 63  64 65 66  67 68 69  70 71 72  73 74 75  76 77 78  79 16 17  18 19 20  21 22 23  24 25 26  27 28 29  30 31 32  33 34 35  36 37 38  39 40 41  42 43 44  45 46 47  48 49 50  51 52 53  54 55 56  57 58 59  60 61 62  63 64 65  66 67 68  69 70 71  72 73 74  75 76 77  78 79 16  17 18 19  20 21 22  23 24 25  26 27 28  29 30 31  32 33 34  35 36 37  38 39 40  41 42 43  44 45 46  47 48 49  50 51 52  53 54 55  56 57 58  59 60 61  62 63 64  65 66 67  68 69 70  71 72 73  74 75 76  77 78 79  
17 18 19  20 21 22  23 24 25  26 27 28  29 30 31  32 33 34  35 36 37  38 39 40  41 42 43  44 45 46  47 48 49  50 51 52  53 54 55  56 57 58  59 60 61  62 63 64  65 66 67  68 69 70  71 72 73  74 75 76  77 78 79  80 17 18  19 20 21  22 23 24  25 26 27  28 29 30  31 32 33  34 35 36  37 38 39  40 41 42  43 44 45  46 47 48  49 50 51  52 53 54  55 56 57  58 59 60  61 62 63  64 65 66  67 68 69  70 71 72  73 74 75  76 77 78  79 80 17  18 19 20  21 22 23  24 25 26  27 28 29  30 31 32  33 34 35  36 37 38  39 40 41  42 43 44  45 46 47  48 49 50  51 52 53  54 55 56  57 58 59  60 61 62  63 64 65  66 67 68  69 70 71  72 73 74  75 76 77  78 79 80  
18 19 20  21 22 23  24 25 26  27 28 29  30 31 32  33 34 35  36 37 38  39 40 41  42 43 44  45 46 47  48 49 50  51 52 53  54 55 56  57 58 59  60 61 62  63 64 65  66 67 68  69 70 71  72 73 74  75 76 77  78 79 80  81 18 19  20 21 22  23 24 25  26 27 28  29 30 31  32 33 34  35 36 37  38 39 40  41 42 43  44 45 46  47 48 49  50 51 52  53 54 55  56 57 58  59 60 61  62 63 64  65 66 67  68 69 70  71 72 73  74 75 76  77 78 79  80 81 18  19 20 21  22 23 24  25 26 27  28 29 30  31 32 33  34 35 36  37 38 39  40 41 42  43 44 45  46 47 48  49 50 51  52 53 54  55 56 57  58 59 60  61 62 63  64 65 66  67 68 69  70 71 72  73 74 75  76 77 78  79 80 81  
19 20 21  22 23 24  25 26 27  28 29 30  31 32 33  34 35 36  37 38 39  40 41 42  43 44 45  46 47 48  49 50 51  52 53 54  55 56 57  58 59 60  61 62 63  64 65 66  67 68 69  70 71 72  73 74 75  76 77 78  79 80 81  82 19 20  21 22 23  24 25 26  27 28 29  30 31 32  33 34 35  36 37 38  39 40 41  42 43 44  45 46 47  48 49 50  51 52 53  54 55 56  57 58 59  60 61 62  63 64 65  66 67 68  69 70 71  72 73 74  75 76 77  78 79 80  81 82 19  20 21 22  23 24 25  26 27 28  29 30 31  32 33 34  35 36 37  38 39 40  41 42 43  44 45 46  47 48 49  50 51 52  53 54 55  56 57 58  59 60 61  62 63 64  65 66 67  68 69 70  71 72 73  74 75 76  77 78 79  80 81 82  
20 21 22  23 24 25  26 27 28  29 30 31  32 33 34  35 36 37  38 39 40  41 42 43  44 45 46  47 48 49  50 51 52  53 54 55  56 57 58  59 60 61  62 63 64  65 66 67  68 69 70  71 72 73  74 75 76  77 78 79  80 81 82  83 20 21  22 23 24  25 26 27  28 29 30  31 32 33  34 35 36  37 38 39  40 41 42  43 44 45  46 47 48  49 50 51  52 53 54  55 56 57  58 59 60  61 62 63  64 65 66  67 68 69  70 71 72  73 74 75  76 77 78  79 80 81  82 83 20  21 22 23  24 25 26  27 28 29  30 31 32  33 34 35  36 37 38  39 40 41  42 43 44  45 46 47  48 49 50  51 52 53  54 55 56  57 58 59  60 61 62  63 64 65  66 67 68  69 70 71  72 73 74  75 76 77  78 79 80  81 82 83  
21 22 23  24 25 26  27 28 29  30 31 32  33 34 35  36 37 38  39 40 41  42 43 44  45 46 47  48 49 50  51 52 53  54 55 56  57 58 59  60 61 62  63 64 65  66 67 68  69 70 71  72 73 74  75 76 77  78 79 80  81 82 83  84 21 22  23 24 25  26 27 28  29 30 31  32 33 34  35 36 37  38 39 40  41 42 43  44 45 46  47 48 49  50 51 52  53 54 55  56 57 58  59 60 61  62 63 64  65 66 67  68 69 70  71 72 73  74 75 76  77 78 79  80 81 82  83 84 21  22 23 24  25 26 27  28 29 30  31 32 33  34 35 36  37 38 39  40 41 42  43 44 45  46 47 48  49 50 51  52 53 54  55 56 57  58 59 60  61 62 63  64 65 66  67 68 69  70 71 72  73 74 75  76 77 78  79 80 81  82 83 84  
22 23 24  25 26 27  28 29 30  31 32 33  34 35 36  37 38 39  40 41 42  43 44 45  46 47 48  49 50 51  52 53 54  55 56 57  58 59 60  61 62 63  64 65 66  67 68 69  70 71 72  73 74 75  76 77 78  79 80 81  82 83 84  85 22 23  24 25 26  27 28 29  30 31 32  33 34 35  36 37 38  39 40 41  42 43 44  45 46 47  48 49 50  51 52 53  54 55 56  57 58 59  60 61 62  63 64 65  66 67 68  69 70 71  72 73 74  75 76 77  78 79 80  81 82 83  84 85 22  23 24 25  26 27 28  29 30 31  32 33 34  35 36 37  38 39 40  41 42 43  44 45 46  47 48 49  50 51 52  53 54 55  56 57 58  59 60 61  62 63 64  65 66 67  68 69 70  71 72 73  74 75 76  77 78 79  80 81 82  83 84 85  
23 24 25  26 27 28  29 30 31  32 33 34  35 36 37  38 39 40  41 42 43  44 45 46  47 48 49  50 51 52  53 54 55  56 57 58  59 60 61  62 63 64  65 66 67  68 69 70  71 72 73  74 75 76  77 78 79  80 81 82  83 84 85  86 23 24  25 26 27  28 29 30  31 32 33  34 35 36  37 38 39  40 41 42  43 44 45  46 47 48  49 50 51  52 53 54  55 56 57  58 59 60  61 62 63  64 65 66  67 68 69  70 71 72  73 74 75  76 77 78  79 80 81  82 83 84  85 86 23  24 25 26  27 28 29  30 31 32  33 34 35  36 37 38  39 40 41  42 43 44  45 46 47  48 49 50  51 52 53  54 55 56  57 58 59  60 61 62  63 64 65  66 67 68  69 70 71  72 73 74  75 76 77  78 79 80  81 82 83  84 85 86  
24 25 26  27 28 29  30 31 32  33 34 35  36 37 38  39 40 41  42 43 44  45 46 47  48 49 50  51 52 53  54 55 56  57 58 59  60 61 62  63 64 65  66 67 68  69 70 71  72 73 74  75 76 77  78 79 80  81 82 83  84 85 86  87 24 25  26 27 28  29 30 31  32 33 34  35 36 37  38 39 40  41 42 43  44 45 46  47 48 49  50 51 52  53 54 55  56 57 58  59 60 61  62 63 64  65 66 67  68 69 70  71 72 73  74 75 76  77 78 79  80 81 82  83 84 85  86 87 24  25 26 27  28 29 30  31 32 33  34 35 36  37 38 39  40 41 42  43 44 45  46 47 48  49 50 51  52 53 54  55 56 57  58 59 60  61 62 63  64 65 66  67 68 69  70 71 72  73 74 75  76 77 78  79 80 81  82 83 84  85 86 87  
25 26 27  28 29 30  31 32 33  34 35 36  37 38 39  40 41 42  43 44 45  46 47 48  49 50 51  52 53 54  55 56 57  58 59 60  61 62 63  64 65 66  67 68 69  70 71 72  73 74 75  76 77 78  79 80 81  82 83 84  85 86 87  88 25 26  27 28 29  30 31 32  33 34 35  36 37 38  39 40 41  42 43 44  45 46 47  48 49 50  51 52 53  54 55 56  57 58 59  60 61 62  63 64 65  66 67 68  69 70 71  72 73 74  75 76 77  78 79 80  81 82 83  84 85 86  87 88 25  26 27 28  29 30 31  32 33 34  35 36 37  38 39 40  41 42 43  44 45 46  47 48 49  50 51 52  53 54 55  56 57 58  59 60 61  62 63 64  65 66 67  68 69 70  71 72 73  74 75 76  77 78 79  80 81 82  83 84 85  86 87 88  
26 27 28  29 30 31  32 33 34  35 36 37  38 39 40  41 42 43  44 45 46  47 48 49  50 51 52  53 54 55  56 57 58  59 60 61  62 63 64  65 66 67  68 69 70  71 72 73  74 75 76  77 78 79  80 81 82  83 84 85  86 87 88  89 26 27  28 29 30  31 32 33  34 35 36  37 38 39  40 41 42  43 44 45  46 47 48  49 50 51  52 53 54  55 56 57  58 59 60  61 62 63  64 65 66  67 68 69  70 71 72  73 74 75  76 77 78  79 80 81  82 83 84  85 86 87  88 89 26  27 28 29  30 31 32  33 34 35  36 37 38  39 40 41  42 43 44  45 46 47  48 49 50  51 52 53  54 55 56  57 58 59  60 61 62  63 64 65  66 67 68  69 70 71  72 73 74  75 76 77  78 79 80  81 82 83  84 85 86  87 88 89  
27 28 29  30 31 32  33 34 35  36 37 38  39 40 41  42 43 44  45 46 47  48 49 50  51 52 53  54 55 56  57 58 59  60 61 62  63 64 65  66 67 68  69 70 71  72 73 74  75 76 77  78 79 80  81 82 83  84 85 86  87 88 89  90 27 28  29 30 31  32 33 34  35 36 37  38 39 40  41 42 43  44 45 46  47 48 49  50 51 52  53 54 55  56 57 58  59 60 61  62 63 64  65 66 67  68 69 70  71 72 73  74 75 76  77 78 79  80 81 82  83 84 85  86 87 88  89 90 27  28 29 30  31 32 33  34 35 36  37 38 39  40 41 42  43 44 45  46 47 48  49 50 51  52 53 54  55 56 57  58 59 60  61 62 63  64 65 66  67 68 69  70 71 72  73 74 75  76 77 78  79 80 81  82 83 84  85 86 87  88 89 90  
28 29 30  31 32 33  34 35 36  37 38 39  40 41 42  43 44 45  46 47 48  49 50 51  52 53 54  55 56 57  58 59 60  61 62 63  64 65 66  67 68 69  70 71 72  73 74 75  76 77 78  79 80 81  82 83 84  85 86 87  88 89 90  91 28 29  30 31 32  33 34 35  36 37 38  39 40 41  42 43 44  45 46 47  48 49 50  51 52 53  54 55 56  57 58 59  60 61 62  63 64 65  66 67 68  69 70 71  72 73 74  75 76 77  78 79 80  81 82 83  84 85 86  87 88 89  90 91 28  29 30 31  32 33 34  35 36 37  38 39 40  41 42 43  44 45 46  47 48 49  50 51 52  53 54 55  56 57 58  59 60 61  62 63 64  65 66 67  68 69 70  71 72 73  74 75 76  77 78 79  80 81 82  83 84 85  86 87 88  89 90 91  
29 30 31  32 33 34  35 36 37  38 39 40  41 42 43  44 45 46  47 48 49  50 51 52  53 54 55  56 57 58  59 60 61  62 63 64  65 66 67  68 69 70  71 72 73  74 75 76  77 78 79  80 81 82  83 84 85  86 87 88  89 90 91  92 29 30  31 32 33  34 35 36  37 38 39  40 41 42  43 44 45  46 47 48  49 50 51  52 53 54  55 56 57  58 59 60  61 62 63  64 65 66  67 68 69  70 71 72  73 74 75  76 77 78  79 80 81  82 83 84  85 86 87  88 89 90  91 92 29  30 31 32  33 34 35  36 37 38  39 40 41  42 43 44  45 46 47  48 49 50  51 52 53  54 55 56  57 58 59  60 61 62  63 64 65  66 67 68  69 70 71  72 73 74  75 76 77  78 79 80  81 82 83  84 85 86  87 88 89  90 91 92  
30 31 32  33 34 35  36 37 38  39 40 41  42 43 44  45 46 47  48 49 50  51 52 53  54 55 56  57 58 59  60 61 62  63 64 65  66 67 68  69 70 71  72 73 74  75 76 77  78 79 80  81 82 83  84 85 86  87 88 89  90 91 92  93 30 31  32 33 34  35 36 37  38 39 40  41 42 43  44 45 46  47 48 49  50 51 52  53 54 55  56 57 58  59 60 61  62 63 64  65 66 67  68 69 70  71 72 73  74 75 76  77 78 79  80 81 82  83 84 85  86 87 88  89 90 91  92 93 30  31 32 33  34 35 36  37 38 39  40 41 42  43 44 45  46 47 48  49 50 51  52 53 54  55 56 57  58 59 60  61 62 63  64 65 66  67 68 69  70 71 72  73 74 75  76 77 78  79 80 81  82 83 84  85 86 87  88 89 90  91 92 93  
31 32 33  34 35 36  37 38 39  40 41 42  43 44 45  46 47 48  49 50 51  52 53 54  55 56 57  58 59 60  61 62 63  64 65 66  67 68 69  70 71 72  73 74 75  76 77 78  79 80 81  82 83 84  85 86 87  88 89 90  91 92 93  94 31 32  33 34 35  36 37 38  39 40 41  42 43 44  45 46 47  48 49 50  51 52 53  54 55 56  57 58 59  60 61 62  63 64 65  66 67 68  69 70 71  72 73 74  75 76 77  78 79 80  81 82 83  84 85 86  87 88 89  90 91 92  93 94 31  32 33 34  35 36 37  38 39 40  41 42 43  44 45 46  47 48 49  50 51 52  53 54 55  56 57 58  59 60 61  62 63 64  65 66 67  68 69 70  71 72 73  74 75 76  77 78 79  80 81 82  83 84 85  86 87 88  89 90 91  92 93 94  
32 33 34  35 36 37  38 39 40  41 42 43  44 45 46  47 48 49  50 51 52  53 54 55  56 57 58  59 60 61  62 63 64  65 66 67  68 69 70  71 72 73  74 75 76  77 78 79  80 81 82  83 84 85  86 87 88  89 90 91  92 93 94  95 32 33  34 35 36  37 38 39  40 41 42  43 44 45  46 47 48  49 50 51  52 53 54  55 56 57  58 59 60  61 62 63  64 65 66  67 68 69  70 71 72  73 74 75  76 77 78  79 80 81  82 83 84  85 86 87  88 89 90  91 92 93  94 95 32  33 34 35  36 37 38  39 40 41  42 43 44  45 46 47  48 49 50  51 52 53  54 55 56  57 58 59  60 61 62  63 64 65  66 67 68  69 70 71  72 73 74  75 76 77  78 79 80  81 82 83  84 85 86  87 88 89  90 91 92  93 94 95  
33 34 35  36 37 38  39 40 41  42 43 44  45 46 47  48 49 50  51 52 53  54 55 56  57 58 59  60 61 62  63 64 65  66 67 68  69 70 71  72 73 74  75 76 77  78 79 80  81 82 83  84 85 86  87 88 89  90 91 92  93 94 95  96 33 34  35 36 37  38 39 40  41 42 43  44 45 46  47 48 49  50 51 52  53 54 55  56 57 58  59 60 61  62 63 64  65 66 67  68 69 70  71 72 73  74 75 76  77 78 79  80 81 82  83 84 85  86 87 88  89 90 91  92 93 94  95 96 33  34 35 36  37 38 39  40 41 42  43 44 45  46 47 48  49 50 51  52 53 54  55 56 57  58 59 60  61 62 63  64 65 66  67 68 69  70 71 72  73 74 75  76 77 78  79 80 81  82 83 84  85 86 87  88 89 90  91 92 93  94 95 96  
34 35 36  37 38 39  40 41 42  43 44 45  46 47 48  49 50 51  52 53 54  55 56 57  58 59 60  61 62 63  64 65 66  67 68 69  70 71 72  73 74 75  76 77 78  79 80 81  82 83 84  85 86 87  88 89 90  91 92 93  94 95 96  97 34 35  36 37 38  39 40 41  42 43 44  45 46 47  48 49 50  51 52 53  54 55 56  57 58 59  60 61 62  63 64 65  66 67 68  69 70 71  72 73 74  75 76 77  78 79 80  81 82 83  84 85 86  87 88 89  90 91 92  93 94 95  96 97 34  35 36 37  38 39 40  41 42 43  44 45 46  47 48 49  50 51 52  53 54 55  56 57 58  59 60 61  62 63 64  65 66 67  68 69 70  71 72 73  74 75 76  77 78 79  80 81 82  83 84 85  86 87 88  89 90 91  92 93 94  95 96 97  
35 36 37  38 39 40  41 42 43  44 45 46  47 48 49  50 51 52  53 54 55  56 57 58  59 60 61  62 63 64  65 66 67  68 69 70  71 72 73  74 75 76  77 78 79  80 81 82  83 84 85  86 87 88  89 90 91  92 93 94  95 96 97  98 35 36  37 38 39  40 41 42  43 44 45  46 47 48  49 50 51  52 53 54  55 56 57  58 59 60  61 62 63  64 65 66  67 68 69  70 71 72  73 74 75  76 77 78  79 80 81  82 83 84  85 86 87  88 89 90  91 92 93  94 95 96  97 98 35  36 37 38  39 40 41  42 43 44  45 46 47  48 49 50  51 52 53  54 55 56  57 58 59  60 61 62  63 64 65  66 67 68  69 70 71  72 73 74  75 76 77  78 79 80  81 82 83  84 85 86  87 88 89  90 91 92  93 94 95  96 97 98  
36 37 38  39 40 41  42 43 44  45 46 47  48 49 50  51 52 53  54 55 56  57 58 59  60 61 62  63 64 65  66 67 68  69 70 71  72 73 74  75 76 77  78 79 80  81 82 83  84 85 86  87 88 89  90 91 92  93 94 95  96 97 98  99 36 37  38 39 40  41 42 43  44 45 46  47 48 49  50 51 52  53 54 55  56 57 58  59 60 61  62 63 64  65 66 67  68 69 70  71 72 73  74 75 76  77 78 79  80 81 82  83 84 85  86 87 88  89 90 91  92 93 94  95 96 97  98 99 36  37 38 39  40 41 42  43 44 45  46 47 48  49 50 51  52 53 54  55 56 57  58 59 60  61 62 63  64 65 66  67 68 69  70 71 72  73 74 75  76 77 78  79 80 81  82 83 84  85 86 87  88 89 90  91 92 93  94 95 96  97 98 99  
37 38 39  40 41 42  43 44 45  46 47 48  49 50 51  52 53 54  55 56 57  58 59 60  61 62 63  64 65 66  67 68 69  70 71 72  73 74 75  76 77 78  79 80 81  82 83 84  85 86 87  88 89 90  91 92 93  94 95 96  97 98 99  100 37 38  39 40 41  42 43 44  45 46 47  48 49 50  51 52 53  54 55 56  57 58 59  60 61 62  63 64 65  66 67 68  69 70 71  72 73 74  75 76 77  78 79 80  81 82 83  84 85 86  87 88 89  90 91 92  93 94 95  96 97 98  99 100 37  38 39 40  41 42 43  44 45 46  47 48 49  50 51 52  53 54 55  56 57 58  59 60 61  62 63 64  65 66 67  68 69 70  71 72 73  74 75 76  77 78 79  80 81 82  83 84 85  86 87 88  89 90 91  92 93 94  95 96 97  98 99 100  
38 39 40  41 42 43  44 45 46  47 48 49  50 51 52  53 54 55  56 57 58  59 60 61  62 63 64  65 66 67  68 69 70  71 72 73  74 75 76  77 78 79  80 81 82  83 84 85  86 87 88  89 90 91  92 93 94  95 96 97  98 99 100  101 38 39  40 41 42  43 44 45  46 47 48  49 50 51  52 53 54  55 56 57  58 59 60  61 62 63  64 65 66  67 68 69  70 71 72  73 74 75  76 77 78  79 80 81  82 83 84  85 86 87  88 89 90  91 92 93  94 95 96  97 98 99  100 101 38  39 40 41  42 43 44  45 46 47  48 49 50  51 52 53  54 55 56  57 58 59  60 61 62  63 64 65  66 67 68  69 70 71  72 73 74  75 76 77  78 79 80  81 82 83  84 85 86  87 88 89  90 91 92  93 94 95  96 97 98  99 100 101  
39 40 41  42 43 44  45 46 47  48 49 50  51 52 53  54 55 56  57 58 59  60 61 62  63 64 65  66 67 68  69 70 71  72 73 74  75 76 77  78 79 80  81 82 83  84 85 86  87 88 89  90 91 92  93 94 95  96 97 98  99 100 101  102 39 40  41 42 43  44 45 46  47 48 49  50 51 52  53 54 55  56 57 58  59 60 61  62 63 64  65 66 67  68 69 70  71 72 73  74 75 76  77 78 79  80 81 82  83 84 85  86 87 88  89 90 91  92 93 94  95 96 97  98 99 100  101 102 39  40 41 42  43 44 45  46 47 48  49 50 51  52 53 54  55 56 57  58 59 60  61 62 63  64 65 66  67 68 69  70 71 72  73 74 75  76 77 78  79 80 81  82 83 84  85 86 87  88 89 90  91 92 93  94 95 96  97 98 99  100 101 102  
40 41 42  43 44 45  46 47 48  49 50 51  52 53 54  55 56 57  58 59 60  61 62 63  64 65 66  67 68 69  70 71 72  73 74 75  76 77 78  79 80 81  82 83 84  85 86 87  88 89 90  91 92 93  94 95 96  97 98 99  100 101 102  103 40 41  42 43 44  45 46 47  48 49 50  51 52 53  54 55 56  57 58 59  60 61 62  63 64 65  66 67 68  69 70 71  72 73 74  75 76 77  78 79 80  81 82 83  84 85 86  87 88 89  90 91 92  93 94 95  96 97 98  99 100 101  102 103 40  41 42 43  44 45 46  47 48 49  50 51 52  53 54 55  56 57 58  59 60 61  62 63 64  65 66 67  68 69 70  71 72 73  74 75 76  77 78 79  80 81 82  83 84 85  86 87 88  89 90 91  92 93 94  95 96 97  98 99 100  101 102 103  
41 42 43  44 45 46  47 48 49  50 51 52  53 54 55  56 57 58  59 60 61  62 63 64  65 66 67  68 69 70  71 72 73  74 75 76  77 78 79  80 81 82  83 84 85  86 87 88  89 90 91  92 93 94  95 96 97  98 99 100  101 102 103  104 41 42  43 44 45  46 47 48  49 50 51  52 53 54  55 56 57  58 59 60  61 62 63  64 65 66  67 68 69  70 71 72  73 74 75  76 77 78  79 80 81  82 83 84  85 86 87  88 89 90  91 92 93  94 95 96  97 98 99  100 101 102  103 104 41  42 43 44  45 46 47  48 49 50  51 52 53  54 55 56  57 58 59  60 61 62  63 64 65  66 67 68  69 70 71  72 73 74  75 76 77  78 79 80  81 82 83  84 85 86  87 88 89  90 91 92  93 94 95  96 97 98  99 100 101  102 103 104  
42 43 44  45 46 47  48 49 50  51 52 53  54 55 56  57 58 59  60 61 62  63 64 65  66 67 68  69 70 71  72 73 74  75 76 77  78 79 80  81 82 83  84 85 86  87 88 89  90 91 92  93 94 95  96 97 98  99 100 101  102 103 104  105 42 43  44 45 46  47 48 49  50 51 52  53 54 55  56 57 58  59 60 61  62 63 64  65 66 67  68 69 70  71 72 73  74 75 76  77 78 79  80 81 82  83 84 85  86 87 88  89 90 91  92 93 94  95 96 97  98 99 100  101 102 103  104 105 42  43 44 45  46 47 48  49 50 51  52 53 54  55 56 57  58 59 60  61 62 63  64 65 66  67 68 69  70 71 72  73 74 75  76 77 78  79 80 81  82 83 84  85 86 87  88 89 90  91 92 93  94 95 96  97 98 99  100 101 102  103 104 105  
43 44 45  46 47 48  49 50 51  52 53 54  55 56 57  58 59 60  61 62 63  64 65 66  67 68 69  70 71 72  73 74 75  76 77 78  79 80 81  82 83 84  85 86 87  88 89 90  91 92 93  94 95 96  97 98 99  100 101 102  103 104 105  106 43 44  45 46 47  48 49 50  51 52 53  54 55 56  57 58 59  60 61 62  63 64 65  66 67 68  69 70 71  72 73 74  75 76 77  78 79 80  81 82 83  84 85 86  87 88 89  90 91 92  93 94 95  96 97 98  99 100 101  102 103 104  105 106 43  44 45 46  47 48 49  50 51 52  53 54 55  56 57 58  59 60 61  62 63 64  65 66 67  68 69 70  71 72 73  74 75 76  77 78 79  80 81 82  83 84 85  86 87 88  89 90 91  92 93 94  95 96 97  98 99 100  101 102 103  104 105 106  
44 45 46  47 48 49  50 51 52  53 54 55  56 57 58  59 60 61  62 63 64  65 66 67  68 69 70  71 72 73  74 75 76  77 78 79  80 81 82  83 84 85  86 87 88  89 90 91  92 93 94  95 96 97  98 99 100  101 102 103  104 105 106  107 44 45  46 47 48  49 50 51  52 53 54  55 56 57  58 59 60  61 62 63  64 65 66  67 68 69  70 71 72  73 74 75  76 77 78  79 80 81  82 83 84  85 86 87  88 89 90  91 92 93  94 95 96  97 98 99  100 101 102  103 104 105  106 107 44  45 46 47  48 49 50  51 52 53  54 55 56  57 58 59  60 61 62  63 64 65  66 67 68  69 70 71  72 73 74  75 76 77  78 79 80  81 82 83  84 85 86  87 88 89  90 91 92  93 94 95  96 97 98  99 100 101  102 103 104  105 106 107  
45 46 47  48 49 50  51 52 53  54 55 56  57 58 59  60 61 62  63 64 65  66 67 68  69 70 71  72 73 74  75 76 77  78 79 80  81 82 83  84 85 86  87 88 89  90 91 92  93 94 95  96 97 98  99 100 101  102 103 104  105 106 107  108 45 46  47 48 49  50 51 52  53 54 55  56 57 58  59 60 61  62 63 64  65 66 67  68 69 70  71 72 73  74 75 76  77 78 79  80 81 82  83 84 85  86 87 88  89 90 91  92 93 94  95 96 97  98 99 100  101 102 103  104 105 106  107 108 45  46 47 48  49 50 51  52 53 54  55 56 57  58 59 60  61 62 63  64 65 66  67 68 69  70 71 72  73 74 75  76 77 78  79 80 81  82 83 84  85 86 87  88 89 90  91 92 93  94 95 96  97 98 99  100 101 102  103 104 105  106 107 108  
46 47 48  49 50 51  52 53 54  55 56 57  58 59 60  61 62 63  64 65 66  67 68 69  70 71 72  73 74 75  76 77 78  79 80 81  82 83 84  85 86 87  88 89 90  91 92 93  94 95 96  97 98 99  100 101 102  103 104 105  106 107 108  109 46 47  48 49 50  51 52 53  54 55 56  57 58 59  60 61 62  63 64 65  66 67 68  69 70 71  72 73 74  75 76 77  78 79 80  81 82 83  84 85 86  87 88 89  90 91 92  93 94 95  96 97 98  99 100 101  102 103 104  105 106 107  108 109 46  47 48 49  50 51 52  53 54 55  56 57 58  59 60 61  62 63 64  65 66 67  68 69 70  71 72 73  74 75 76  77 78 79  80 81 82  83 84 85  86 87 88  89 90 91  92 93 94  95 96 97  98 99 100  101 102 103  104 105 106  107 108 109  
47 48 49  50 51 52  53 54 55  56 57 58  59 60 61  62 63 64  65 66 67  68 69 70  71 72 73  74 75 76  77 78 79  80 81 82  83 84 85  86 87 88  89 90 91  92 93 94  95 96 97  98 99 100  101 102 103  104 105 106  107 108 109  110 47 48  49 50 51  52 53 54  55 56 57  58 59 60  61 62 63  64 65 66  67 68 69  70 71 72  73 74 75  76 77 78  79 80 81  82 83 84  85 86 87  88 89 90  91 92 93  94 95 96  97 98 99  100 101 102  103 104 105  106 107 108  109 110 47  48 49 50  51 52 53  54 55 56  57 58 59  60 61 62  63 64 65  66 67 68  69 70 71  72 73 74  75 76 77  78 79 80  81 82 83  84 85 86  87 88 89  90 91 92  93 94 95  96 97 98  99 100 101  102 103 104  105 106 107  108 109 110  
48 49 50  51 52 53  54 55 56  57 58 59  60 61 62  63 64 65  66 67 68  69 70 71  72 73 74  75 76 77  78 79 80  81 82 83  84 85 86  87 88 89  90 91 92  93 94 95  96 97 98  99 100 101  102 103 104  105 106 107  108 109 110  111 48 49  50 51 52  53 54 55  56 57 58  59 60 61  62 63 64  65 66 67  68 69 70  71 72 73  74 75 76  77 78 79  80 81 82  83 84 85  86 87 88  89 90 91  92 93 94  95 96 97  98 99 100  101 102 103  104 105 106  107 108 109  110 111 48  49 50 51  52 53 54  55 56 57  58 59 60  61 62 63  64 65 66  67 68 69  70 71 72  73 74 75  76 77 78  79 80 81  82 83 84  85 86 87  88 89 90  91 92 93  94 95 96  97 98 99  100 101 102  103 104 105  106 107 108  109 110 111  
49 50 51  52 53 54  55 56 57  58 59 60  61 62 63  64 65 66  67 68 69  70 71 72  73 74 75  76 77 78  79 80 81  82 83 84  85 86 87  88 89 90  91 92 93  94 95 96  97 98 99  100 101 102  103 104 105  106 107 108  109 110 111  112 49 50  51 52 53  54 55 56  57 58 59  60 61 62  63 64 65  66 67 68  69 70 71  72 73 74  75 76 77  78 79 80  81 82 83  84 85 86  87 88 89  90 91 92  93 94 95  96 97 98  99 100 101  102 103 104  105 106 107  108 109 110  111 112 49  50 51 52  53 54 55  56 57 58  59 60 61  62 63 64  65 66 67  68 69 70  71 72 73  74 75 76  77 78 79  80 81 82  83 84 85  86 87 88  89 90 91  92 93 94  95 96 97  98 99 100  101 102 103  104 105 106  107 108 109  110 111 112  
50 51 52  53 54 55  56 57 58  59 60 61  62 63 64  65 66 67  68 69 70  71 72 73  74 75 76  77 78 79  80 81 82  83 84 85  86 87 88  89 90 91  92 93 94  95 96 97  98 99 100  101 102 103  104 105 106  107 108 109  110 111 112  113 50 51  52 53 54  55 56 57  58 59 60  61 62 63  64 65 66  67 68 69  70 71 72  73 74 75  76 77 78  79 80 81  82 83 84  85 86 87  88 89 90  91 92 93  94 95 96  97 98 99  100 101 102  103 104 105  106 107 108  109 110 111  112 113 50  51 52 53  54 55 56  57 58 59  60 61 62  63 64 65  66 67 68  69 70 71  72 73 74  75 76 77  78 79 80  81 82 83  84 85 86  87 88 89  90 91 92  93 94 95  96 97 98  99 100 101  102 103 104  105 106 107  108 109 110  111 112 113  
51 52 53  54 55 56  57 58 59  60 61 62  63 64 65  66 67 68  69 70 71  72 73 74  75 76 77  78 79 80  81 82 83  84 85 86  87 88 89  90 91 92  93 94 95  96 97 98  99 100 101  102 103 104  105 106 107  108 109 110  111 112 113  114 51 52  53 54 55  56 57 58  59 60 61  62 63 64  65 66 67  68 69 70  71 72 73  74 75 76  77 78 79  80 81 82  83 84 85  86 87 88  89 90 91  92 93 94  95 96 97  98 99 100  101 102 103  104 105 106  107 108 109  110 111 112  113 114 51  52 53 54  55 56 57  58 59 60  61 62 63  64 65 66  67 68 69  70 71 72  73 74 75  76 77 78  79 80 81  82 83 84  85 86 87  88 89 90  91 92 93  94 95 96  97 98 99  100 101 102  103 104 105  106 107 108  109 110 111  112 113 114  
52 53 54  55 56 57  58 59 60  61 62 63  64 65 66  67 68 69  70 71 72  73 74 75  76 77 78  79 80 81  82 83 84  85 86 87  88 89 90  91 92 93  94 95 96  97 98 99  100 101 102  103 104 105  106 107 108  109 110 111  112 113 114  115 52 53  54 55 56  57 58 59  60 61 62  63 64 65  66 67 68  69 70 71  72 73 74  75 76 77  78 79 80  81 82 83  84 85 86  87 88 89  90 91 92  93 94 95  96 97 98  99 100 101  102 103 104  105 106 107  108 109 110  111 112 113  114 115 52  53 54 55  56 57 58  59 60 61  62 63 64  65 66 67  68 69 70  71 72 73  74 75 76  77 78 79  80 81 82  83 84 85  86 87 88  89 90 91  92 93 94  95 96 97  98 99 100  101 102 103  104 105 106  107 108 109  110 111 112  113 114 115  
53 54 55  56 57 58  59 60 61  62 63 64  65 66 67  68 69 70  71 72 73  74 75 76  77 78 79  80 81 82  83 84 85  86 87 88  89 90 91  92 93 94  95 96 97  98 99 100  101 102 103  104 105 106  107 108 109  110 111 112  113 114 115  116 53 54  55 56 57  58 59 60  61 62 63  64 65 66  67 68 69  70 71 72  73 74 75  76 77 78  79 80 81  82 83 84  85 86 87  88 89 90  91 92 93  94 95 96  97 98 99  100 101 102  103 104 105  106 107 108  109 110 111  112 113 114  115 116 53  54 55 56  57 58 59  60 61 62  63 64 65  66 67 68  69 70 71  72 73 74  75 76 77  78 79 80  81 82 83  84 85 86  87 88 89  90 91 92  93 94 95  96 97 98  99 100 101  102 103 104  105 106 107  108 109 110  111 112 113  114 115 116  
54 55 56  57 58 59  60 61 62  63 64 65  66 67 68  69 70 71  72 73 74  75 76 77  78 79 80  81 82 83  84 85 86  87 88 89  90 91 92  93 94 95  96 97 98  99 100 101  102 103 104  105 106 107  108 109 110  111 112 113  114 115 116  117 54 55  56 57 58  59 60 61  62 63 64  65 66 67  68 69 70  71 72 73  74 75 76  77 78 79  80 81 82  83 84 85  86 87 88  89 90 91  92 93 94  95 96 97  98 99 100  101 102 103  104 105 106  107 108 109  110 111 112  113 114 115  116 117 54  55 56 57  58 59 60  61 62 63  64 65 66  67 68 69  70 71 72  73 74 75  76 77 78  79 80 81  82 83 84  85 86 87  88 89 90  91 92 93  94 95 96  97 98 99  100 101 102  103 104 105  106 107 108  109 110 111  112 113 114  115 116 117  
55 56 57  58 59 60  61 62 63  64 65 66  67 68 69  70 71 72  73 74 75  76 77 78  79 80 81  82 83 84  85 86 87  88 89 90  91 92 93  94 95 96  97 98 99  100 101 102  103 104 105  106 107 108  109 110 111  112 113 114  115 116 117  118 55 56  57 58 59  60 61 62  63 64 65  66 67 68  69 70 71  72 73 74  75 76 77  78 79 80  81 82 83  84 85 86  87 88 89  90 91 92  93 94 95  96 97 98  99 100 101  102 103 104  105 106 107  108 109 110  111 112 113  114 115 116  117 118 55  56 57 58  59 60 61  62 63 64  65 66 67  68 69 70  71 72 73  74 75 76  77 78 79  80 81 82  83 84 85  86 87 88  89 90 91  92 93 94  95 96 97  98 99 100  101 102 103  104 105 106  107 108 109  110 111 112  113 114 115  116 117 118  
56 57 58  59 60 61  62 63 64  65 66 67  68 69 70  71 72 73  74 75 76  77 78 79  80 81 82  83 84 85  86 87 88  89 90 91  92 93 94  95 96 97  98 99 100  101 102 103  104 105 106  107 108 109  110 111 112  113 114 115  116 117 118  119 56 57  58 59 60  61 62 63  64 65 66  67 68 69  70 71 72  73 74 75  76 77 78  79 80 81  82 83 84  85 86 87  88 89 90  91 92 93  94 95 96  97 98 99  100 101 102  103 104 105  106 107 108  109 110 111  112 113 114  115 116 117  118 119 56  57 58 59  60 61 62  63 64 65  66 67 68  69 70 71  72 73 74  75 76 77  78 79 80  81 82 83  84 85 86  87 88 89  90 91 92  93 94 95  96 97 98  99 100 101  102 103 104  105 106 107  108 109 110  111 112 113  114 115 116  117 118 119  
57 58 59  60 61 62  63 64 65  66 67 68  69 70 71  72 73 74  75 76 77  78 79 80  81 82 83  84 85 86  87 88 89  90 91 92  93 94 95  96 97 98  99 100 101  102 103 104  105 106 107  108 109 110  111 112 113  114 115 116  117 118 119  120 57 58  59 60 61  62 63 64  65 66 67  68 69 70  71 72 73  74 75 76  77 78 79  80 81 82  83 84 85  86 87 88  89 90 91  92 93 94  95 96 97  98 99 100  101 102 103  104 105 106  107 108 109  110 111 112  113 114 115  116 117 118  119 120 57  58 59 60  61 62 63  64 65 66  67 68 69  70 71 72  73 74 75  76 77 78  79 80 81  82 83 84  85 86 87  88 89 90  91 92 93  94 95 96  97 98 99  100 101 102  103 104 105  106 107 108  109 110 111  112 113 114  115 116 117  118 119 120  
58 59 60  61 62 63  64 65 66  67 68 69  70 71 72  73 74 75  76 77 78  79 80 81  82 83 84  85 86 87  88 89 90  91 92 93  94 95 96  97 98 99  100 101 102  103 104 105  106 107 108  109 110 111  112 113 114  115 116 117  118 119 120  121 58 59  60 61 62  63 64 65  66 67 68  69 70 71  72 73 74  75 76 77  78 79 80  81 82 83  84 85 86  87 88 89  90 91 92  93 94 95  96 97 98  99 100 101  102 103 104  105 106 107  108 109 110  111 112 113  114 115 116  117 118 119  120 121 58  59 60 61  62 63 64  65 66 67  68 69 70  71 72 73  74 75 76  77 78 79  80 81 82  83 84 85  86 87 88  89 90 91  92 93 94  95 96 97  98 99 100  101 102 103  104 105 106  107 108 109  110 111 112  113 114 115  116 117 118  119 120 121  
59 60 61  62 63 64  65 66 67  68 69 70  71 72 73  74 75 76  77 78 79  80 81 82  83 84 85  86 87 88  89 90 91  92 93 94  95 96 97  98 99 100  101 102 103  104 105 106  107 108 109  110 111 112  113 114 115  116 117 118  119 120 121  122 59 60  61 62 63  64 65 66  67 68 69  70 71 72  73 74 75  76 77 78  79 80 81  82 83 84  85 86 87  88 89 90  91 92 93  94 95 96  97 98 99  100 101 102  103 104 105  106 107 108  109 110 111  112 113 114  115 116 117  118 119 120  121 122 59  60 61 62  63 64 65  66 67 68  69 70 71  72 73 74  75 76 77  78 79 80  81 82 83  84 85 86  87 88 89  90 91 92  93 94 95  96 97 98  99 100 101  102 103 104  105 106 107  108 109 110  111 112 113  114 115 116  117 118 119  120 121 122  
60 61 62  63 64 65  66 67 68  69 70 71  72 73 74  75 76 77  78 79 80  81 82 83  84 85 86  87 88 89  90 91 92  93 94 95  96 97 98  99 100 101  102 103 104  105 106 107  108 109 110  111 112 113  114 115 116  117 118 119  120 121 122  123 60 61  62 63 64  65 66 67  68 69 70  71 72 73  74 75 76  77 78 79  80 81 82  83 84 85  86 87 88  89 90 91  92 93 94  95 96 97  98 99 100  101 102 103  104 105 106  107 108 109  110 111 112  113 114 115  116 117 118  119 120 121  122 123 60  61 62 63  64 65 66  67 68 69  70 71 72  73 74 75  76 77 78  79 80 81  82 83 84  85 86 87  88 89 90  91 92 93  94 95 96  97 98 99  100 101 102  103 104 105  106 107 108  109 110 111  112 113 114  115 116 117  118 119 120  121 122 123  
61 62 63  64 65 66  67 68 69  70 71 72  73 74 75  76 77 78  79 80 81  82 83 84  85 86 87  88 89 90  91 92 93  94 95 96  97 98 99  100 101 102  103 104 105  106 107 108  109 110 111  112 113 114  115 116 117  118 119 120  121 122 123  124 61 62  63 64 65  66 67 68  69 70 71  72 73 74  75 76 77  78 79 80  81 82 83  84 85 86  87 88 89  90 91 92  93 94 95  96 97 98  99 100 101  102 103 104  105 106 107  108 109 110  111 112 113  114 115 116  117 118 119  120 121 122  123 124 61  62 63 64  65 66 67  68 69 70  71 72 73  74 75 76  77 78 79  80 81 82  83 84 85  86 87 88  89 90 91  92 93 94  95 96 97  98 99 100  101 102 103  104 105 106  107 108 109  110 111 112  113 114 115  116 117 118  119 120 121  122 123 124  
62 63 64  65 66 67  68 69 70  71 72 73  74 75 76  77 78 79  80 81 82  83 84 85  86 87 88  89 90 91  92 93 94  95 96 97  98 99 100  101 102 103  104 105 106  107 108 109  110 111 112  113 114 115  116 117 118  119 120 121  122 123 124  125 62 63  64 65 66  67 68 69  70 71 72  73 74 75  76 77 78  79 80 81  82 83 84  85 86 87  88 89 90  91 92 93  94 95 96  97 98 99  100 101 102  103 104 105  106 107 108  109 110 111  112 113 114  115 116 117  118 119 120  121 122 123  124 125 62  63 64 65  66 67 68  69 70 71  72 73 74  75 76 77  78 79 80  81 82 83  84 85 86  87 88 89  90 91 92  93 94 95  96 97 98  99 100 101  102 103 104  105 106 107  108 109 110  111 112 113  114 115 116  117 118 119  120 121 122  123 124 125  
63 64 65  66 67 68  69 70 71  72 73 74  75 76 77  78 79 80  81 82 83  84 85 86  87 88 89  90 91 92  93 94 95  96 97 98  99 100 101  102 103 104  105 106 107  108 109 110  111 112 113  114 115 116  117 118 119  120 121 122  123 124 125  126 63 64  65 66 67  68 69 70  71 72 73  74 75 76  77 78 79  80 81 82  83 84 85  86 87 88  89 90 91  92 93 94  95 96 97  98 99 100  101 102 103  104 105 106  107 108 109  110 111 112  113 114 115  116 117 118  119 120 121  122 123 124  125 126 63  64 65 66  67 68 69  70 71 72  73 74 75  76 77 78  79 80 81  82 83 84  85 86 87  88 89 90  91 92 93  94 95 96  97 98 99  100 101 102  103 104 105  106 107 108  109 110 111  112 113 114  115 116 117  118 119 120  121 122 123  124 125 126  
