P3
64 64
255
8 11 27 40 43 85 11 117 24 46 112 27 65 59 13 51 40 51 47 111 86 118 67 54 32 30 112 123 67 10 54 52 22 58 69 42 18 81 11 42 104 123 46 44 34 37 73 74 65 120 38 26 91 105 81 123 112 45 121 31 55 50 84 77 86 5 96 104 63 107 124 20 82 45 64 117 59 114 43 0 87 58 26 53 38 84 28 26 4 24 57 60 51 118 114 12 101 86 94 39 45 70 59 3 92 101 97 27 67 117 27 6 51 30 36 66 115 64 69 119 65 104 31 117 97 21 106 50 84 52 67 106 122 103 86 90 56 58 94 124 28 121 107 79 3 19 20 118 83 90 90 24 46 98 118 120 96 76 46 55 4 113 14 103 91 100 68 0 34 14 124 39 112 106 118 116 102 115 109 61 57 51 62 103 25 32 99 121 108 20 29 112 
110 43 68 53 18 11 53 29 26 29 68 13 113 38 106 90 29 68 3 63 119 42 42 121 74 118 95 58 115 124 22 100 19 90 5 14 79 36 44 82 42 89 72 7 105 54 98 111 122 78 49 93 121 68 90 47 61 60 105 51 36 105 3 55 70 111 69 1 22 90 83 41 32 8 49 12 62 124 100 36 77 24 4 50 93 71 98 6 6 55 58 19 35 38 74 106 24 121 84 23 63 43 65 95 51 91 84 90 90 59 1 42 61 107 70 6 54 43 12 37 98 47 34 9 86 85 92 87 81 51 88 122 71 5 69 99 96 29 64 61 65 42 80 103 2 25 109 33 45 99 47 19 21 81 5 84 42 97 47 100 0 10 97 49 15 42 23 88 48 65 24 90 84 81 69 86 107 30 119 4 4 19 23 26 100 5 110 17 79 9 118 80 
121 67 4 113 86 4 76 9 69 77 77 6 34 21 92 118 28 64 122 33 83 123 36 58 3 123 53 83 8 23 15 4 67 121 118 29 0 46 38 47 124 115 53 33 113 122 3 17 61 0 27 121 100 63 32 104 61 85 39 46 85 54 28 27 50 123 56 27 44 72 74 43 39 2 53 28 0 56 22 38 34 26 35 9 89 67 90 2 4 4 49 89 35 54 93 85 52 25 113 96 74 39 117 113 42 45 118 19 79 15 57 90 41 69 76 107 11 42 110 117 23 11 81 59 65 50 121 117 52 109 65 1 24 57 114 43 80 108 62 11 100 96 101 119 41 52 78 29 71 40 22 95 51 80 6 93 107 2 62 11 89 105 12 90 37 104 110 94 64 24 105 16 120 58 112 13 88 66 20 34 106 42 106 10 99 112 80 59 92 18 70 33 
123 83 123 12 39 108 107 103 7 64 96 104 100 84 118 63 25 13 74 108 32 56 118 108 20 74 42 89 69 113 122 44 48 97 56 87 57 15 42 41 57 115 21 32 74 116 72 76 106 21 37 115 54 30 98 75 81 16 16 2 106 14 46 29 88 80 93 21 95 112 62 4 102 60 36 29 51 108 82 9 107 119 124 36 2 75 111 60 68 105 63 49 119 86 55 59 41 0 80 114 89 18 118 43 55 7 72 107 92 30 93 74 1 93 111 3 43 74 64 88 54 2 12 25 88 44 85 107 44 17 96 110 12 66 28 68 73 78 50 41 85 18 92 86 88 55 90 108 5 29 71 36 8 60 39 73 104 101 55 0 118 3 110 6 70 14 74 120 92 101 13 52 96 106 115 60 36 80 20 18 86 92 32 71 4 71 20 109 47 52 109 40 
33 72 23 80 63 97 75 30 73 89 59 22 47 49 82 60 107 79 79 68 23 111 15 28 34 12 12 58 41 98 98 74 22 122 29 85 71 82 115 122 46 26 19 93 76 78 28 58 32 84 103 56 47 95 84 58 84 73 116 1 23 90 52 46 64 59 6 10 16 99 109 39 0 3 109 53 81 114 88 114 51 67 22 98 37 106 32 122 31 0 100 54 90 4 100 6 63 107 119 56 81 103 95 58 107 56 112 40 46 75 29 97 17 51 47 32 9 56 6 40 57 83 95 124 87 47 108 26 29 102 59 87 57 7 21 16 63 110 57 86 60 86 35 55 115 83 64 101 116 70 17 25 28 89 25 115 11 110 118 18 87 53 82 121 60 80 13 100 65 70 62 103 8 97 33 100 32 97 77 1 19 71 26 24 35 28 14 23 13 110 18 77 
15 101 74 52 56 87 27 99 32 66 77 17 16 110 118 48 59 70 26 55 16 53 79 28 58 93 28 72 55 47 24 70 0 75 122 33 37 2 7 46 68 84 64 84 46 34 110 82 104 11 12 97 41 91 102 100 37 107 24 92 29 48 15 6 101 114 40 13 116 47 37 37 109 78 121 30 112 106 90 91 95 102 40 11 69 17 111 83 101 112 50 6 13 42 114 114 32 29 104 0 54 16 37 38 94 11 45 81 94 10 24 64 90 64 76 11 58 39 94 35 27 121 18 40 39 109 6 48 14 110 48 45 2 63 83 73 74 105 30 43 93 31 85 58 73 36 46 108 52 15 120 56 11 115 73 50 100 79 75 114 42 124 34 44 39 94 94 113 51 101 8 19 8 93 54 81 106 100 41 11 92 37 67 104 27 118 6 2 49 82 93 91 
58 2 112 97 73 82 62 0 58 47 121 43 16 28 101 99 105 18 110 73 55 30 29 59 23 35 62 49 94 30 16 27 10 105 101 83 39 15 83 98 63 57 118 56 85 95 30 65 113 16 13 20 46 42 79 46 55 118 95 24 24 88 29 11 69 107 94 85 123 30 58 38 87 29 94 24 124 101 89 89 117 80 86 15 99 40 61 6 11 9 8 12 97 37 23 18 19 117 104 119 124 14 9 63 43 103 87 19 80 29 108 49 109 69 65 60 87 103 44 75 112 52 87 62 89 110 80 85 79 36 57 79 28 66 17 71 22 105 68 79 111 28 3 72 75 45 7 37 24 51 89 11 103 51 73 44 36 6 107 92 42 39 46 70 105 41 119 104 123 62 58 109 67 62 56 17 84 40 31 108 69 120 120 47 46 45 69 59 51 51 27 71 
90 50 118 47 91 89 27 66 3 62 50 71 124 83 88 61 124 120 44 68 115 16 92 14 62 13 73 90 64 77 13 6 3 7 54 71 96 58 13 100 120 40 46 97 101 9 33 100 106 77 20 97 71 89 111 8 103 36 75 42 91 89 49 94 96 80 17 44 13 7 19 110 25 42 82 1 29 115 78 10 45 98 107 116 62 70 101 40 84 51 83 50 117 109 121 65 64 13 110 54 123 106 39 23 1 99 1 30 89 79 40 111 52 0 79 91 47 32 109 6 61 44 56 53 28 52 119 69 43 81 123 18 62 14 18 63 113 19 70 55 98 111 18 2 88 98 70 10 5 54 17 66 98 50 97 103 103 91 47 123 47 22 16 86 37 34 2 25 53 72 57 3 35 76 107 123 49 29 111 31 84 3 75 34 53 47 13 8 115 60 6 14 
60 22 100 97 33 79 99 63 4 9 66 39 85 25 15 111 55 1 17 116 4 69 2 34 116 15 20 83 53 26 97 113 26 50 62 36 4 13 100 8 22 41 25 107 44 40 70 76 18 65 44 124 9 46 33 103 62 53 61 92 57 34 57 60 84 119 96 65 109 71 74 7 90 76 91 111 93 37 62 111 102 106 110 88 4 120 66 43 49 3 10 83 37 67 120 121 38 91 61 0 15 112 109 82 40 75 68 8 89 5 119 43 88 104 7 69 100 73 113 1 76 123 61 90 43 56 63 58 124 102 35 14 89 19 96 107 72 16 115 36 123 87 57 86 43 64 31 120 114 121 121 43 96 34 8 14 67 72 50 67 49 85 58 115 82 7 74 29 23 65 42 22 4 99 85 47 15 93 43 5 89 16 25 61 28 10 52 95 82 79 37 108 
40 96 76 122 80 2 3 103 44 45 102 48 20 63 96 35 8 116 17 98 7 42 11 35 53 63 108 112 18 20 73 35 93 1 9 48 3 12 4 48 57 106 73 54 21 44 67 30 12 84 105 122 104 116 9 9 31 117 98 26 13 46 38 83 24 47 109 5 36 90 30 71 48 103 0 70 0 67 77 12 4 57 9 108 25 19 117 33 11 90 60 1 114 98 62 115 123 46 120 34 113 25 82 36 4 83 83 106 2 35 118 6 69 3 91 71 124 83 105 10 26 40 114 117 115 51 107 113 74 80 0 62 82 82 98 86 17 57 44 122 69 38 3 14 18 95 85 17 30 42 4 33 82 118 25 50 21 110 38 95 65 15 9 22 75 108 86 69 17 5 66 63 20 70 54 38 17 117 55 47 34 60 58 94 30 83 19 52 45 34 22 87 
50 32 110 102 117 48 46 111 30 90 49 51 12 81 89 29 73 122 53 107 57 88 76 87 47 95 14 69 5 14 32 32 23 119 111 15 42 9 103 49 99 4 100 111 85 42 117 33 39 23 16 96 111 69 35 10 40 27 80 22 41 89 31 64 83 17 56 0 26 11 49 103 15 2 66 101 44 36 9 83 36 2 31 124 72 66 10 89 70 67 111 111 8 17 27 91 11 60 68 37 71 94 117 87 96 59 40 117 95 49 75 6 52 83 5 101 25 117 65 72 36 51 59 44 45 63 10 56 101 55 70 47 25 63 111 121 99 26 114 69 53 41 52 82 0 57 58 2 27 123 74 40 26 110 85 71 49 72 104 2 3 49 49 28 89 13 1 63 16 115 109 69 9 36 26 9 71 84 113 75 59 39 115 85 25 75 31 51 0 112 53 3 
14 79 8 103 69 9 19 86 102 105 7 111 17 34 97 65 95 85 15 7 124 107 92 1 58 101 52 35 88 82 38 102 14 46 58 83 55 54 44 32 34 52 120 51 63 92 93 10 29 85 17 6 68 87 7 103 63 37 13 3 96 51 106 110 74 16 69 106 70 90 14 104 119 111 8 57 79 101 45 108 39 62 114 107 1 99 85 64 113 98 68 84 1 26 70 75 19 116 56 89 81 47 45 76 34 53 110 90 7 30 73 23 70 40 5 71 116 67 113 104 40 33 40 18 36 110 93 55 101 1 19 35 26 41 88 60 72 73 25 56 81 75 79 26 92 84 74 60 26 39 39 43 72 80 61 108 42 6 15 121 109 11 8 10 53 96 47 0 44 49 56 0 0 10 3 69 71 55 5 74 94 21 117 19 78 30 104 121 36 120 94 20 
108 102 8 36 73 55 13 94 105 46 72 82 33 75 3 104 107 8 53 54 7 22 50 85 52 29 58 65 1 27 86 110 106 71 123 54 1 12 1 83 35 73 17 69 0 21 25 108 6 56 37 13 78 87 76 108 93 9 48 95 14 111 57 97 57 32 4 36 44 5 119 57 78 12 1 78 10 3 61 16 59 75 7 115 14 83 98 108 69 123 55 60 110 89 33 19 121 37 55 18 42 50 75 120 39 53 50 49 56 112 42 116 39 49 83 54 109 33 14 54 31 69 91 118 10 124 13 6 13 68 24 55 95 76 27 111 4 78 12 61 42 55 29 58 104 89 112 89 122 103 120 5 24 86 124 34 86 114 18 76 34 42 7 107 96 11 93 100 66 106 13 85 36 19 19 117 85 108 58 82 87 53 65 88 117 64 123 55 30 16 6 64 
35 13 23 6 2 117 84 45 75 74 6 88 71 2 80 31 110 116 114 49 44 31 13 36 95 113 91 102 4 98 18 16 88 42 0 67 34 84 113 86 10 96 49 81 98 106 113 60 97 79 87 119 110 77 7 57 65 76 11 46 49 29 39 114 71 39 34 82 100 22 43 111 118 69 67 68 51 32 3 0 88 90 119 50 19 2 84 84 55 95 107 81 0 22 70 71 38 81 29 14 103 49 0 73 119 44 118 22 54 122 22 17 64 119 68 84 98 4 20 28 100 105 109 100 104 31 23 17 113 52 31 68 79 8 119 73 53 112 95 107 86 94 101 3 65 21 64 38 26 61 66 1 41 27 78 122 59 101 15 24 29 23 92 108 32 63 33 62 51 105 44 114 51 122 117 117 19 56 30 22 118 74 23 11 78 101 9 12 77 1 13 83 
24 83 43 56 21 53 95 49 33 14 39 62 114 31 54 110 65 84 7 35 10 7 46 89 108 55 78 37 33 92 98 58 50 118 91 71 24 62 121 34 53 12 96 42 43 25 27 85 87 11 120 97 18 42 61 103 74 117 16 108 84 91 18 9 61 109 57 85 46 30 120 77 42 91 96 63 117 124 23 56 10 19 28 6 38 67 109 89 59 102 49 18 68 67 4 5 29 38 67 52 69 62 4 111 6 101 26 123 77 50 54 64 46 59 70 61 1 55 2 37 32 52 32 78 96 36 60 0 52 2 53 121 65 57 84 48 10 111 23 87 13 54 27 36 113 74 74 92 4 76 4 14 3 14 92 100 27 27 77 79 29 5 75 71 40 35 119 50 123 17 115 113 71 119 24 37 68 75 4 73 26 110 87 7 124 54 84 27 58 36 106 87 
42 34 11 59 46 5 109 44 0 76 32 48 70 33 85 14 108 89 64 111 52 3 118 51 57 77 55 92 91 37 54 8 71 42 44 117 25 5 13 25 82 22 73 27 32 34 18 117 100 82 103 27 85 97 56 119 26 111 86 117 23 118 102 71 35 21 40 37 4 30 62 86 29 113 113 61 124 109 53 99 66 9 104 27 83 35 21 109 123 85 79 124 78 33 70 90 32 88 3 36 118 42 122 0 30 87 61 6 71 92 83 13 101 62 17 59 74 15 20 72 77 76 71 7 110 119 98 17 82 78 53 52 97 27 29 105 114 91 111 38 35 69 28 113 108 45 47 34 37 44 107 115 121 30 122 106 24 72 100 83 2 28 113 100 55 17 80 21 85 66 36 120 113 64 108 73 86 7 108 101 52 90 91 25 120 65 108 122 13 83 57 15 
111 45 115 18 40 47 16 0 91 53 98 79 94 58 27 33 66 10 9 95 77 100 97 50 40 80 24 30 38 81 46 24 104 13 19 19 61 12 121 4 42 94 83 12 28 87 45 71 75 54 41 4 6 13 54 46 93 55 54 108 12 100 7 93 90 3 112 3 15 85 7 58 55 67 47 60 7 69 6 82 123 24 86 4 14 118 27 107 48 81 90 37 33 74 5 101 54 94 81 46 55 89 81 87 8 3 22 15 72 5 97 47 29 36 28 43 6 33 2 31 91 69 69 102 120 51 78 26 123 34 72 30 100 29 94 109 9 116 124 59 98 74 106 2 110 112 22 116 20 1 124 111 70 68 65 42 97 18 68 72 30 117 79 107 21 48 91 8 39 68 67 12 17 25 116 104 12 115 72 9 116 71 98 38 117 38 80 89 57 0 13 64 
117 92 46 116 15 115 124 31 58 66 20 75 91 113 54 81 103 1 90 94 72 63 109 41 102 41 107 11 41 120 75 10 64 98 1 79 88 102 87 21 43 107 73 112 95 104 68 50 82 10 121 30 74 105 48 28 123 31 39 39 26 91 27 91 64 5 22 5 108 110 26 26 69 77 115 40 56 58 67 14 69 64 21 120 21 69 23 20 100 39 36 104 5 63 70 46 69 69 51 52 54 55 55 124 7 46 16 63 81 83 54 2 124 75 99 21 122 122 41 97 36 77 76 18 16 123 65 62 68 116 91 99 46 21 98 30 44 91 71 1 27 0 105 26 53 80 47 50 54 88 22 68 18 76 86 11 51 26 73 119 120 39 71 18 37 21 49 82 113 120 60 15 97 17 18 25 97 43 75 4 108 75 72 1 3 33 12 54 37 62 26 32 
101 97 27 116 118 76 50 83 48 87 75 123 104 94 23 54 12 76 58 97 3 5 99 108 38 111 14 52 26 40 84 104 114 112 95 85 40 20 43 66 107 96 64 64 65 64 118 54 117 28 26 97 33 102 80 48 66 72 101 92 89 37 71 79 1 19 16 19 39 59 85 124 30 1 40 72 42 33 103 12 38 107 86 71 61 19 96 2 91 49 71 55 87 18 111 65 37 2 84 53 39 21 29 46 22 69 96 42 79 74 31 117 33 117 40 72 11 12 74 102 61 21 33 0 16 121 66 30 124 25 60 38 47 90 84 46 11 55 65 91 107 96 60 117 89 101 64 77 90 116 55 3 114 65 4 5 61 47 12 37 72 72 75 96 14 35 120 26 67 60 117 49 9 29 19 75 5 83 27 95 74 59 99 63 124 80 45 38 2 57 75 51 
107 26 23 121 38 120 22 82 32 116 109 41 21 3 116 3 63 121 76 13 55 27 53 32 107 76 70 86 8 20 12 92 23 12 89 38 7 88 98 40 57 82 58 78 62 27 58 0 23 9 115 78 36 21 110 120 97 32 81 82 30 71 50 53 83 14 69 68 79 42 85 11 101 120 66 38 22 0 38 45 111 6 101 23 27 63 120 124 73 54 81 103 0 6 8 60 122 54 105 77 96 65 65 72 38 7 87 60 7 1 83 118 7 36 118 34 76 114 10 24 43 91 2 20 98 113 80 72 42 38 24 116 80 90 40 118 74 3 54 81 106 114 51 90 25 22 101 101 113 111 1 8 77 105 28 27 93 85 100 11 123 101 2 56 43 42 49 117 22 103 73 3 92 102 93 94 101 69 71 89 55 49 97 110 29 102 12 100 39 89 111 15 
66 90 71 109 109 120 102 7 76 27 10 20 106 81 115 82 25 38 46 58 87 120 43 116 74 32 91 91 122 54 106 63 121 29 24 106 1 1 90 77 6 77 75 112 33 65 70 36 80 93 71 42 66 114 10 117 123 79 83 120 8 41 35 107 47 37 65 49 38 30 103 21 84 53 9 95 95 56 108 50 1 54 69 67 20 80 37 18 34 97 116 19 14 3 103 38 40 43 87 56 50 66 77 112 96 63 82 67 119 65 94 121 119 39 40 14 96 77 9 5 50 0 1 41 106 105 79 21 0 42 54 28 85 7 15 56 47 97 100 42 14 70 38 8 86 78 124 57 31 8 39 58 111 17 99 92 99 53 90 100 72 122 105 32 106 120 66 28 92 41 70 83 88 85 91 49 39 67 83 47 52 122 82 38 117 56 107 91 86 50 43 34 
47 23 43 5 120 109 33 64 3 104 22 91 64 90 118 80 32 76 104 85 51 61 100 20 94 60 111 56 87 7 67 111 7 110 116 3 72 24 67 75 105 90 18 22 55 11 79 65 65 59 25 93 97 102 113 67 37 99 123 101 83 65 87 91 27 78 71 76 80 13 3 60 80 22 59 11 10 14 53 52 50 55 20 22 32 8 89 47 85 87 23 43 4 111 111 9 64 57 85 19 71 66 57 3 88 116 116 75 107 44 3 32 99 0 55 7 9 19 31 94 84 54 114 65 40 101 51 82 33 12 78 81 78 10 85 18 104 76 70 86 121 50 119 95 51 26 79 37 45 110 6 106 40 120 24 57 73 75 116 107 64 70 40 17 57 0 12 13 54 60 77 50 110 71 122 13 74 54 50 96 39 56 78 56 29 79 91 102 29 82 61 94 
4 102 88 39 79 78 29 8 13 106 35 100 29 10 114 103 64 39 75 103 73 5 12 79 84 103 33 113 37 95 59 19 49 23 58 3 78 87 114 91 46 24 43 75 34 32 54 98 49 4 54 122 9 66 53 70 21 86 58 58 33 95 77 82 95 112 63 48 52 52 116 98 53 34 25 88 67 79 38 93 60 69 67 46 112 120 116 8 81 27 44 115 122 98 49 92 63 112 15 115 39 6 65 70 17 90 33 61 22 48 29 82 95 96 4 82 68 97 68 2 124 89 94 121 39 18 65 102 108 80 69 124 63 9 69 58 77 79 119 99 3 24 33 98 97 14 32 18 112 100 20 88 41 114 62 81 109 2 58 92 60 105 92 100 91 36 33 43 116 28 119 96 29 28 46 103 42 55 121 29 8 118 118 49 84 32 5 69 34 41 13 94 
21 82 47 89 119 80 8 87 85 104 35 114 7 58 70 50 113 66 56 121 37 26 46 121 58 28 42 70 69 56 16 67 13 63 9 109 19 119 48 81 98 83 48 106 16 118 8 107 36 41 103 73 68 1 70 103 30 112 48 76 20 65 121 34 3 5 120 124 124 44 58 97 2 106 55 121 99 63 103 10 82 58 61 25 60 108 3 90 72 29 41 93 94 37 104 74 19 99 51 18 120 109 93 100 67 23 96 41 64 51 28 21 109 66 23 44 49 3 111 122 9 28 90 103 42 46 30 39 122 58 57 118 19 2 93 86 3 41 104 67 92 7 65 53 74 65 98 100 45 84 97 55 89 39 10 109 85 40 23 60 75 57 53 94 60 21 32 63 62 11 107 6 19 24 59 70 66 9 45 111 71 120 41 12 11 52 121 74 69 121 9 20 
31 62 91 91 60 124 6 99 112 90 105 6 91 16 53 32 26 76 18 97 48 37 86 59 89 60 8 10 56 119 7 87 33 99 30 93 75 13 67 62 103 24 46 69 41 76 78 44 4 97 118 52 9 79 89 75 14 74 85 48 69 93 112 102 44 120 71 96 8 115 10 89 117 56 10 33 110 89 54 114 38 47 42 24 103 6 99 118 80 36 18 1 106 5 104 2 102 27 75 111 119 86 52 111 119 62 19 104 26 73 94 41 97 113 65 76 96 16 46 28 30 64 30 11 46 111 116 24 13 66 112 7 4 39 96 124 101 115 80 105 41 26 21 115 14 87 66 87 103 89 116 8 5 123 122 52 86 90 53 76 8 40 83 13 79 31 114 32 22 69 12 40 96 34 7 87 121 51 50 76 15 18 62 21 118 36 50 79 103 103 30 111 
18 90 101 74 122 90 106 121 35 119 13 6 5 20 93 103 71 120 54 64 13 93 85 108 106 10 62 84 90 92 71 108 58 47 34 32 13 15 28 25 9 41 8 14 61 78 94 110 74 24 49 64 94 9 48 76 121 110 35 86 55 83 46 90 6 80 122 121 72 25 123 59 43 6 50 81 84 20 66 10 44 115 75 115 101 100 66 74 85 102 12 117 37 58 82 43 115 79 16 63 81 14 122 124 20 24 81 82 44 22 92 65 115 42 56 68 17 122 18 80 76 30 72 114 66 7 9 56 86 3 96 20 17 70 19 15 95 77 97 14 77 64 80 67 84 11 10 78 110 5 10 39 36 60 5 102 67 14 10 5 17 84 25 12 29 22 27 101 99 101 116 51 17 48 95 101 36 83 32 21 88 42 37 101 79 42 55 21 57 66 27 51 
2 29 63 31 51 67 110 3 43 78 31 61 1 104 14 37 62 46 35 2 66 50 104 20 92 34 42 24 77 46 53 79 75 116 88 104 36 73 107 79 26 13 15 4 117 30 18 31 53 30 34 119 80 115 117 48 1 34 49 56 57 102 10 109 71 75 88 107 23 70 38 26 61 31 30 30 38 48 62 91 79 73 63 34 40 55 82 41 66 109 97 123 86 85 84 9 35 48 93 36 95 7 62 8 38 93 39 76 118 78 19 49 26 59 84 43 114 18 84 32 2 34 7 66 119 92 52 6 15 21 42 87 5 82 96 43 27 10 96 20 65 92 70 91 27 6 111 118 1 70 26 4 81 10 47 52 102 99 36 94 97 78 57 102 12 5 122 39 15 70 37 80 38 84 23 42 90 9 12 91 56 15 72 115 26 96 42 105 71 55 75 43 
9 109 123 123 114 120 38 106 66 52 38 81 11 38 100 78 24 112 21 57 3 94 47 29 42 67 111 113 122 61 9 108 22 7 107 113 104 122 94 45 26 109 103 37 22 78 92 46 66 113 104 46 59 26 52 102 70 38 67 68 77 53 28 99 60 10 65 17 109 34 39 10 121 18 24 18 73 116 65 116 82 21 37 118 24 66 95 95 105 15 15 57 68 43 8 106 31 73 123 117 85 14 3 81 32 27 99 106 121 16 74 78 14 112 48 39 53 121 111 10 11 1 67 56 21 53 14 29 1 114 22 86 4 2 19 36 6 119 119 2 112 69 57 2 33 106 18 63 102 4 74 90 107 118 21 105 23 36 10 25 25 9 88 29 11 108 43 119 79 14 99 43 60 31 22 93 114 40 9 68 44 83 10 26 53 9 109 77 22 96 79 24 
105 19 54 93 104 74 87 35 65 61 79 1 70 101 94 36 17 80 82 38 15 92 42 69 78 26 123 100 122 77 0 102 73 31 47 53 105 111 88 45 48 42 46 95 121 118 108 115 50 65 28 66 10 70 112 88 73 110 64 70 39 41 24 112 72 71 40 52 35 106 74 60 0 98 30 121 68 115 111 118 56 117 36 43 39 23 108 113 8 24 58 24 65 60 114 12 108 29 41 18 112 93 78 113 66 85 109 111 76 73 81 109 65 118 27 104 16 10 92 2 12 3 26 77 63 15 90 23 22 6 42 9 99 120 99 17 58 84 105 9 9 62 118 74 32 122 30 48 109 100 27 121 80 31 74 120 23 16 18 22 22 60 32 99 33 6 93 91 67 74 77 76 113 47 2 20 44 10 45 28 110 50 2 65 81 53 37 104 69 55 2 68 
93 11 19 103 119 113 46 39 39 123 92 4 45 95 1 66 105 23 71 67 73 73 109 29 1 21 111 47 53 90 116 21 78 10 124 49 100 22 88 14 20 56 18 42 3 121 108 85 20 32 27 93 105 11 100 84 9 63 6 62 28 99 61 83 110 37 7 85 60 96 77 57 4 72 77 109 69 37 69 89 69 73 57 27 61 32 111 70 95 94 109 100 69 45 58 54 83 43 116 120 14 68 52 120 16 4 104 62 42 25 26 111 98 83 115 34 93 101 104 40 48 65 118 117 111 28 23 69 71 116 64 62 60 93 57 53 98 13 115 117 38 118 80 113 53 71 22 21 24 103 39 72 44 32 64 7 37 64 76 109 56 117 46 93 62 81 123 12 94 90 4 110 83 62 75 113 110 98 10 9 53 26 82 74 35 123 81 72 40 9 56 73 
103 103 41 41 36 16 53 107 106 35 69 41 97 20 29 82 95 16 68 23 19 25 98 54 1 54 2 18 41 35 91 19 115 7 60 26 0 114 9 83 1 78 101 98 98 107 32 68 124 100 69 18 103 19 50 81 50 29 99 91 64 65 111 55 49 46 58 49 12 44 109 13 123 85 88 73 67 120 119 43 73 40 62 28 59 89 109 109 118 60 76 57 102 62 89 26 85 23 52 98 44 36 111 42 98 75 93 40 47 64 84 97 104 123 0 15 87 86 124 57 21 52 114 123 91 56 1 52 56 30 25 100 43 113 120 16 40 65 34 65 4 118 37 85 93 15 100 55 101 76 112 123 106 78 98 72 111 77 124 42 107 1 120 26 92 115 19 7 55 53 49 36 23 87 98 116 102 50 23 55 103 112 53 84 66 4 32 52 81 8 72 40 
10 67 43 102 34 40 86 66 93 11 102 117 75 75 85 29 102 109 84 80 96 115 40 14 96 49 44 29 57 116 69 67 35 90 21 69 5 85 10 75 73 89 67 23 16 5 52 118 114 113 73 85 103 90 77 51 14 121 80 72 112 25 116 22 92 115 68 97 75 78 47 23 19 92 23 35 97 52 5 63 40 78 0 121 21 77 47 35 73 3 107 37 5 76 36 97 66 104 46 16 34 70 16 53 14 39 65 88 91 70 26 6 1 4 104 22 81 27 57 7 7 17 44 114 93 81 86 34 60 109 27 72 54 43 0 69 82 43 32 48 113 36 31 91 40 11 113 121 15 23 3 22 40 25 113 8 106 51 19 18 35 46 90 66 89 68 10 23 111 20 71 76 33 79 43 73 90 31 46 82 54 27 81 71 52 69 56 10 120 75 28 30 
98 119 74 39 39 61 62 25 81 110 78 114 65 121 39 7 5 86 67 36 113 23 108 17 93 16 27 65 92 55 73 42 26 22 59 65 83 121 67 17 84 21 108 1 119 23 110 124 109 52 36 74 76 121 91 21 114 118 86 58 48 11 101 52 33 35 117 94 8 37 111 92 58 94 70 52 117 56 29 78 108 42 27 36 15 95 57 4 88 121 63 114 7 39 41 18 51 10 112 59 24 75 4 82 44 74 112 14 5 16 69 91 35 74 2 50 44 37 54 110 10 117 99 119 8 117 12 59 104 101 96 4 51 100 63 73 26 50 87 9 43 31 100 78 105 79 3 2 116 35 112 1 27 86 98 13 55 110 72 11 64 20 15 115 120 56 63 22 83 2 31 2 34 108 57 116 62 38 118 54 73 105 32 77 43 107 90 75 93 15 64 32 
35 56 124 31 112 40 30 71 42 38 50 76 21 107 45 60 20 15 91 93 98 101 46 118 83 11 46 51 3 110 60 39 41 37 47 29 77 77 100 119 92 25 48 90 109 70 25 5 85 117 75 58 93 121 29 51 110 75 80 113 60 117 4 101 29 51 107 83 3 59 78 72 61 103 37 46 48 63 51 110 55 103 21 23 100 50 51 62 0 6 27 37 101 32 115 5 83 98 66 64 32 19 11 94 99 49 117 124 112 20 109 19 123 5 19 75 32 70 12 32 54 17 46 30 49 37 12 109 10 78 48 19 74 37 90 48 63 82 47 27 102 9 46 101 14 42 51 24 112 41 33 18 58 80 48 84 117 38 68 104 116 94 123 66 6 66 91 69 23 116 73 103 0 119 56 116 13 84 15 0 0 49 121 35 4 21 119 98 59 40 77 51 
9 52 94 117 118 60 38 119 28 111 97 28 82 28 20 95 112 12 72 90 61 68 0 42 67 97 15 1 12 69 29 123 122 100 92 92 13 5 86 41 93 35 70 50 40 67 122 28 79 69 95 16 115 72 58 57 21 51 35 10 120 65 8 94 17 100 62 30 82 0 72 50 36 119 77 76 61 74 81 15 19 28 8 111 101 44 43 99 95 78 110 90 120 95 60 13 71 122 20 5 99 92 56 112 63 110 41 124 60 122 117 56 3 102 42 81 21 62 55 116 15 40 82 113 11 17 103 59 116 123 64 67 68 97 55 6 60 96 108 120 70 77 51 73 54 70 29 76 7 62 67 22 102 1 112 90 120 90 1 88 66 43 31 9 15 86 117 75 57 77 47 104 29 75 53 84 20 59 12 27 121 79 27 76 58 116 18 53 82 20 17 0 
63 48 9 55 111 103 108 20 56 30 124 62 106 29 21 103 89 10 108 62 90 10 115 0 1 9 53 60 29 47 60 92 95 46 22 58 2 5 78 58 13 78 120 96 84 119 74 48 4 57 88 71 44 78 71 23 64 102 83 93 24 121 37 97 19 37 30 21 19 109 79 32 39 52 3 123 23 55 24 4 89 112 76 9 42 124 32 107 101 92 52 103 65 90 75 85 2 105 106 21 66 38 31 105 67 11 81 90 43 105 94 8 69 22 119 88 22 3 70 100 72 100 78 13 42 5 98 44 88 56 42 29 94 50 10 36 39 91 103 82 48 73 90 117 72 61 80 71 64 3 47 12 80 102 25 122 85 100 18 48 31 37 77 103 88 64 116 2 7 95 61 55 20 27 24 92 65 82 39 5 62 63 17 17 17 19 116 102 96 9 25 2 
23 80 82 111 19 74 90 4 44 27 59 64 31 61 8 96 120 47 78 57 87 72 51 105 68 19 82 39 28 85 19 51 40 101 15 36 27 82 40 71 86 77 112 94 13 121 43 110 20 121 19 108 46 70 65 114 66 22 29 94 84 48 122 101 1 114 13 29 72 53 77 10 107 65 105 97 38 23 82 35 121 101 120 42 23 60 32 89 60 61 35 19 86 10 121 64 124 111 93 48 16 23 59 124 88 16 96 103 39 31 13 35 7 9 55 8 69 87 97 106 0 110 1 63 120 99 2 96 85 73 20 101 73 56 100 36 72 49 116 88 80 106 100 64 92 30 72 14 94 22 120 71 7 121 9 104 95 114 75 32 39 72 9 112 105 109 0 29 33 93 117 90 74 70 30 42 100 102 33 47 101 28 118 108 2 105 64 74 94 117 107 110 
64 116 97 22 77 74 51 88 42 21 53 116 91 60 10 43 38 43 90 14 72 61 100 51 41 16 0 112 8 107 97 50 75 69 72 28 18 100 116 60 121 21 28 87 82 39 6 97 59 73 88 108 9 40 34 27 57 35 14 42 119 111 92 70 32 16 98 27 117 66 64 90 64 93 53 21 109 36 95 43 86 59 27 73 76 38 100 8 73 115 51 68 101 120 13 9 114 88 13 106 29 78 71 70 46 101 69 30 114 39 50 53 75 54 1 27 93 78 12 18 68 40 86 22 36 76 8 25 39 21 108 45 99 31 93 20 110 37 27 76 76 55 4 4 86 107 8 54 61 20 50 4 61 11 3 74 65 11 76 81 33 36 104 109 44 72 107 29 109 111 83 37 41 64 18 3 47 26 34 108 47 84 89 85 73 70 11 115 81 64 71 91 
77 27 76 121 76 35 3 37 21 86 75 40 2 70 20 49 97 54 9 121 116 76 81 41 21 69 31 79 8 79 46 85 107 99 58 58 9 61 96 7 124 23 47 2 93 67 28 42 122 38 38 90 91 119 6 112 40 14 66 48 93 89 110 52 40 44 111 26 82 59 34 82 59 81 61 27 1 89 47 100 2 85 65 93 57 48 57 97 62 101 123 7 42 108 60 83 4 23 86 64 82 120 21 16 54 59 20 55 23 67 30 3 28 72 73 62 120 6 34 34 84 9 41 1 95 101 84 99 124 46 38 81 18 36 74 49 95 72 104 96 116 111 99 121 58 47 58 30 30 93 64 114 102 106 116 72 82 52 24 59 75 39 117 71 53 67 120 0 116 100 96 107 63 47 104 99 95 37 4 102 107 46 92 62 27 83 9 86 112 10 20 63 
27 115 9 80 57 4 80 25 81 29 7 122 76 111 96 23 24 77 1 6 123 70 68 25 5 55 89 117 42 86 32 69 76 18 24 110 0 82 10 81 111 18 55 39 106 26 63 5 104 41 114 102 88 34 105 93 66 46 85 109 7 95 53 61 113 55 46 113 114 34 47 100 29 102 116 10 4 31 16 85 49 107 39 12 16 19 105 60 65 43 44 50 13 74 111 103 106 32 92 95 43 116 47 72 93 16 83 74 47 76 11 97 58 51 109 51 70 67 111 113 87 7 38 100 59 24 55 17 33 124 113 77 115 12 1 84 28 84 10 53 35 22 25 70 73 111 122 120 30 85 108 117 70 123 69 106 22 0 123 33 124 88 87 115 101 88 51 106 48 38 34 60 60 36 6 110 0 105 106 30 42 66 23 112 65 69 70 87 69 69 97 46 
32 59 13 110 23 64 92 48 102 103 108 15 15 114 0 117 94 106 22 12 48 22 101 90 69 47 52 13 93 2 36 0 61 49 88 61 113 32 109 68 112 93 60 104 59 60 96 6 19 96 18 44 118 96 9 39 120 38 53 88 40 89 66 79 116 29 15 104 38 0 24 25 70 84 5 4 122 101 10 16 72 5 37 43 79 46 82 74 61 112 38 102 54 81 33 45 87 48 1 0 25 3 2 95 64 7 100 61 86 87 54 10 93 91 30 47 114 90 98 51 54 113 5 108 69 38 5 31 63 109 8 89 89 113 59 28 120 11 90 58 99 121 46 44 88 76 68 54 18 18 105 73 7 87 33 53 102 16 62 41 0 70 5 89 58 41 94 31 30 59 66 4 56 112 25 121 41 70 50 59 88 8 7 95 72 41 24 50 57 86 68 34 
8 50 100 44 91 69 52 98 106 118 102 14 106 104 112 22 49 37 81 13 22 66 108 95 84 109 122 118 47 65 27 56 115 104 77 58 48 4 32 6 122 111 20 80 91 109 79 117 22 13 5 21 79 91 93 15 52 90 8 100 30 12 8 122 116 85 33 16 66 42 0 40 5 122 121 73 107 75 66 106 65 48 2 121 14 96 11 44 61 19 19 69 31 4 43 124 89 53 118 30 95 118 70 78 92 43 26 74 96 92 55 36 118 58 33 109 6 44 28 67 41 47 113 49 28 9 26 117 62 121 124 10 91 47 88 58 67 114 8 38 59 63 52 29 98 62 13 104 83 42 24 101 66 114 26 95 123 29 64 61 25 41 71 116 88 11 49 7 102 57 23 36 98 75 65 71 114 56 28 72 98 29 26 16 18 52 111 17 81 28 78 106 
69 1 97 9 114 123 16 91 56 39 105 6 91 22 54 57 78 82 107 28 111 8 45 5 37 8 124 118 36 54 76 105 55 25 91 21 23 108 112 56 124 69 62 68 92 117 102 22 74 84 51 38 92 73 20 4 81 19 99 118 73 27 75 105 52 42 1 76 2 90 109 103 35 47 23 104 39 1 1 90 85 29 105 30 102 0 11 59 19 88 29 92 115 81 49 43 100 50 96 102 16 80 58 28 104 81 7 120 82 8 63 20 38 43 27 117 21 38 51 17 1 57 110 94 14 11 12 114 62 85 69 55 17 2 83 122 60 90 94 120 75 32 117 90 53 19 83 74 34 111 91 13 44 53 107 35 65 96 1 104 56 70 34 50 49 94 47 110 59 119 82 111 26 74 77 79 93 12 5 104 100 97 117 19 2 76 31 67 47 33 46 80 
80 57 6 5 26 30 92 62 24 49 49 51 100 103 107 68 92 113 24 67 62 17 64 64 93 95 109 16 105 7 73 61 65 79 43 68 110 10 6 111 36 32 14 11 112 122 56 79 87 80 21 24 74 62 65 43 10 49 36 115 57 86 28 99 41 71 42 3 58 48 114 71 57 4 59 44 103 92 123 65 48 122 66 99 36 6 17 46 56 30 14 90 117 42 64 10 91 106 115 1 7 104 50 41 85 109 86 40 77 61 105 102 35 23 76 72 30 71 118 63 78 109 28 47 4 92 34 95 50 24 73 34 106 123 76 66 85 37 107 14 75 64 116 111 88 44 58 118 115 28 33 46 13 61 93 119 5 3 89 32 27 14 67 110 115 120 52 52 9 11 66 84 75 34 47 15 78 105 110 46 111 18 92 101 79 37 95 61 17 36 94 22 
27 13 7 17 8 59 69 17 47 10 78 123 21 1 115 100 83 101 21 69 119 90 22 51 104 117 112 122 5 58 19 33 71 26 50 79 63 97 73 110 84 4 85 106 5 76 81 88 52 79 10 23 21 32 74 0 2 62 122 7 120 118 40 67 122 68 123 60 40 49 22 124 53 85 82 35 13 15 100 65 71 110 65 92 120 15 70 122 77 67 106 49 38 124 93 35 67 69 95 84 118 94 60 23 54 18 58 67 33 33 109 105 121 50 72 116 65 119 90 119 39 48 43 77 47 114 112 91 58 59 50 51 5 111 51 60 4 109 104 14 119 89 119 115 116 44 83 33 38 25 27 77 74 47 6 98 36 118 65 94 29 115 122 35 78 48 95 82 32 51 97 4 15 68 119 108 112 55 16 3 80 20 57 6 68 64 105 81 34 45 51 64 
12 25 99 91 74 46 25 83 97 99 87 90 43 59 73 7 91 67 112 23 87 45 30 7 109 10 89 18 32 117 59 44 17 33 112 68 56 13 27 6 112 91 96 30 2 21 15 70 88 2 94 28 47 124 35 8 111 124 27 18 116 86 39 111 97 27 54 28 40 58 11 27 2 107 35 106 106 50 52 46 52 21 74 100 122 110 85 108 86 112 1 55 51 40 41 0 44 95 5 84 6 17 89 8 101 124 114 82 49 41 106 78 39 55 30 36 17 116 19 81 80 122 11 6 15 52 108 59 124 114 121 107 6 85 115 107 84 82 42 110 123 23 40 15 55 71 51 50 39 48 6 119 45 17 103 37 46 86 74 22 52 70 5 58 30 97 18 91 54 60 53 30 60 93 45 115 16 73 17 32 121 23 4 19 17 107 56 40 45 5 63 98 
75 45 31 82 119 26 48 49 63 78 56 123 24 78 91 17 26 108 50 23 7 54 42 1 13 98 42 58 81 82 8 31 104 17 91 98 43 14 124 107 70 32 105 94 110 48 88 12 32 115 35 16 44 54 17 34 27 36 93 85 95 101 117 74 95 83 25 14 74 24 121 121 34 78 67 19 104 31 31 11 21 43 4 43 97 123 77 102 35 22 62 5 101 54 57 71 114 82 85 41 83 58 37 117 114 105 12 93 11 20 81 9 64 62 52 36 60 5 13 72 4 76 55 105 107 112 52 74 69 114 115 4 48 27 99 14 7 111 84 120 108 40 5 47 102 34 61 14 16 74 87 21 2 17 1 110 4 30 36 50 20 26 31 45 53 5 59 38 93 18 10 77 35 117 124 114 4 37 3 20 112 90 41 91 107 20 53 88 50 89 115 47 
115 22 69 21 27 3 36 121 123 46 73 10 16 49 124 20 87 105 40 51 70 59 17 30 56 48 95 83 12 86 6 3 108 75 1 10 56 37 108 31 60 33 19 76 83 120 73 22 100 91 73 23 25 67 30 81 115 0 39 105 63 22 85 23 75 86 11 108 100 119 14 35 28 33 89 88 6 14 110 106 105 35 4 5 79 11 63 70 12 80 27 52 102 112 76 52 73 87 35 48 81 27 60 86 37 1 49 43 16 11 2 121 46 108 104 1 120 42 48 109 99 75 36 77 39 112 106 112 74 119 12 8 123 72 94 12 74 19 33 67 30 35 63 54 18 19 32 13 39 57 122 13 109 11 67 23 123 49 10 50 20 124 58 120 71 4 7 122 0 40 64 31 52 105 62 71 124 94 61 38 3 36 29 112 47 96 10 22 122 122 72 17 
121 107 114 44 112 99 19 89 14 83 120 67 40 34 115 17 105 51 32 108 87 61 95 111 33 82 9 30 79 58 25 52 18 14 97 5 90 116 71 105 51 67 24 69 78 14 86 59 42 95 42 5 32 115 93 65 72 102 72 4 36 97 33 54 89 107 36 54 98 107 11 2 26 12 48 105 26 111 16 46 81 58 28 113 48 121 30 121 99 80 102 112 29 10 18 118 118 31 25 68 115 13 47 17 26 95 99 29 81 115 52 15 25 80 105 74 77 11 47 51 91 1 15 120 11 33 91 106 41 93 50 31 83 74 25 86 45 124 93 103 91 20 95 94 101 76 43 53 64 67 81 7 45 73 104 56 83 70 15 124 15 65 30 76 14 56 37 36 32 5 117 101 3 87 70 104 15 90 9 79 32 90 86 77 38 66 110 98 113 0 97 106 
42 2 57 34 35 71 70 45 77 39 21 80 104 91 36 119 56 45 74 65 112 12 119 2 78 104 100 44 82 72 25 124 51 82 33 87 5 81 7 59 97 5 116 76 96 27 71 4 72 122 69 59 9 63 61 88 19 13 109 101 85 9 78 12 68 111 76 73 44 60 8 17 65 124 93 36 4 16 40 53 13 86 113 23 24 26 88 43 40 72 122 102 58 75 114 1 38 42 51 83 102 36 77 42 36 45 55 17 39 72 70 52 33 35 52 34 62 117 55 79 64 52 33 99 104 0 100 17 42 4 77 122 40 29 16 53 52 72 70 91 121 16 120 7 51 48 18 90 40 73 21 82 102 55 56 81 55 9 76 97 13 28 71 53 35 88 107 87 12 52 53 110 68 48 117 97 73 11 62 114 61 84 48 39 14 104 97 46 113 48 120 1 
54 67 32 89 30 14 51 42 43 81 27 89 106 122 61 55 110 100 21 46 59 69 85 50 48 35 96 14 83 92 117 12 11 24 78 41 15 4 60 36 62 64 0 44 38 38 99 23 13 97 70 50 41 7 77 66 42 26 57 1 95 50 115 106 74 69 22 67 50 59 103 113 100 103 32 14 118 108 37 108 80 107 10 98 115 88 16 32 114 74 10 61 124 103 42 50 47 41 117 74 100 72 62 75 27 94 89 20 54 104 106 111 86 116 84 53 79 101 63 45 27 50 106 26 28 0 53 52 41 23 2 118 95 64 69 123 11 10 120 65 91 101 52 30 93 113 83 24 66 123 47 93 49 5 96 77 6 25 5 24 48 7 18 120 48 64 95 59 51 91 102 18 44 6 48 114 119 108 14 61 107 38 6 8 43 103 62 26 105 67 51 5 
51 69 0 77 110 96 11 36 39 113 54 60 119 79 50 91 40 41 4 22 79 10 7 99 90 69 1 70 114 52 75 17 98 53 94 83 1 106 96 17 71 3 77 43 82 104 9 122 20 115 121 76 0 3 28 91 50 29 13 39 58 66 33 8 119 3 68 120 86 39 114 32 42 66 52 0 46 38 99 43 28 73 97 29 76 0 97 103 6 87 119 64 28 28 49 124 31 117 96 117 31 85 1 74 27 31 51 50 69 2 70 98 75 19 2 4 19 76 107 2 38 102 66 44 5 92 43 13 84 15 107 116 77 85 42 104 116 93 6 61 95 54 34 23 73 13 27 93 66 9 72 81 88 14 0 70 83 21 83 43 13 42 34 90 3 76 47 96 21 30 32 93 84 43 116 33 33 18 103 99 5 50 56 93 41 33 39 0 54 99 43 67 
17 54 10 122 107 57 93 105 87 103 73 47 21 42 57 55 37 35 6 42 62 62 11 104 96 27 81 2 103 124 47 120 30 57 94 12 91 40 117 53 18 42 77 16 84 9 48 122 21 55 16 61 94 4 40 65 31 98 45 10 74 92 107 104 1 54 93 92 94 85 20 112 104 75 3 41 61 29 15 60 84 31 121 53 36 13 96 44 111 16 31 60 85 14 16 86 68 109 53 14 46 50 1 25 0 106 43 62 10 58 99 94 67 95 0 103 85 96 124 71 89 31 108 49 22 124 10 67 108 63 81 29 113 59 31 91 40 75 5 28 8 104 99 75 74 99 30 11 47 7 82 11 38 42 60 37 41 70 81 1 110 14 30 99 73 61 42 90 11 47 118 122 26 70 49 77 44 80 88 92 64 22 103 79 64 16 116 105 63 49 106 49 
63 113 0 113 26 42 78 15 89 49 12 92 96 38 44 15 95 109 84 34 6 63 113 70 56 81 27 119 5 110 43 68 75 20 33 101 39 89 93 3 115 105 72 86 121 116 101 91 100 61 1 83 101 91 5 9 48 9 3 53 119 24 99 46 44 7 0 84 73 93 64 63 51 12 24 47 105 103 115 58 16 116 16 117 60 22 1 108 31 106 13 3 5 112 49 27 97 26 88 45 120 27 109 46 16 110 70 122 88 60 55 104 29 48 96 89 70 74 72 79 56 85 82 38 50 108 65 124 10 28 44 107 33 5 28 49 116 98 23 79 10 55 59 39 104 7 3 26 59 52 105 92 115 39 5 40 0 48 39 112 53 60 94 86 66 99 113 57 49 113 11 59 21 47 99 0 32 79 3 91 7 109 58 122 0 40 14 0 65 30 112 119 
90 58 57 31 32 22 65 81 11 54 118 32 101 92 9 8 46 114 76 30 75 9 4 76 27 18 53 92 48 18 63 116 76 121 22 109 120 65 42 6 119 35 15 72 104 1 58 3 116 9 33 66 121 38 119 23 33 48 92 59 66 31 50 17 4 49 103 124 114 123 108 108 33 100 33 13 102 91 118 70 100 26 113 96 41 108 96 52 8 41 111 74 72 36 68 53 85 24 52 75 22 35 35 32 113 68 22 90 11 15 12 112 19 0 60 37 85 9 89 93 50 75 19 99 111 65 27 49 89 79 101 88 92 113 120 80 34 120 22 45 10 11 32 6 113 70 44 74 79 8 19 4 61 16 80 24 81 107 73 45 38 26 110 107 15 105 39 49 77 38 94 88 49 104 71 38 26 115 89 105 101 85 86 37 101 41 38 57 0 89 79 38 
115 64 21 107 22 60 31 99 99 103 39 0 59 111 15 62 78 81 42 31 42 105 45 18 123 84 53 123 48 109 36 38 49 34 123 48 72 6 124 23 109 16 23 20 104 16 82 57 97 101 66 14 58 111 10 56 70 40 54 118 24 68 9 50 79 7 98 26 13 75 26 100 91 27 97 47 43 32 81 15 110 22 7 44 9 119 77 79 34 109 50 58 29 59 109 108 43 59 112 33 111 13 110 54 40 83 101 83 92 58 76 77 80 83 98 89 77 51 21 88 35 71 21 41 107 107 24 25 19 11 35 5 2 21 37 42 81 13 103 48 71 54 102 4 114 76 93 43 104 114 6 116 37 4 32 19 112 33 21 108 22 57 90 24 55 2 43 113 16 21 36 64 52 115 68 18 43 14 61 22 105 67 115 18 72 22 14 36 33 36 19 55 
70 86 79 102 89 122 90 82 121 103 21 25 70 90 44 114 81 82 113 61 25 104 56 74 103 71 87 11 84 106 43 6 67 122 108 8 97 50 90 93 28 112 95 75 54 14 64 112 97 30 48 99 9 105 25 89 51 112 78 112 70 121 118 114 96 101 123 68 26 65 13 31 29 85 106 60 77 23 47 26 53 96 0 39 53 2 105 81 114 58 68 36 32 61 25 105 37 0 48 40 66 38 48 72 123 6 8 75 6 55 78 59 3 78 75 56 57 56 12 23 91 80 59 123 16 62 103 30 39 3 47 82 18 72 30 119 56 38 46 62 70 0 99 74 55 49 5 113 105 18 11 72 75 48 47 92 110 3 99 24 108 124 107 2 71 12 121 2 27 19 65 97 19 39 46 75 65 29 63 46 47 51 95 99 99 17 43 84 122 18 86 106 
17 68 108 65 57 81 68 84 100 110 56 97 1 80 47 66 109 87 89 8 115 59 107 67 54 26 26 51 21 89 9 38 9 94 103 66 27 23 2 105 8 59 77 111 116 101 53 100 40 119 85 30 54 67 97 85 70 101 113 91 42 100 106 52 69 62 118 97 85 121 77 71 32 29 34 0 107 64 77 22 59 37 29 90 81 104 50 27 80 15 95 122 115 54 26 60 116 20 9 53 118 63 124 25 69 11 2 51 75 79 73 9 116 79 99 49 58 1 76 115 119 24 113 109 78 14 21 46 11 7 99 4 70 76 6 14 87 8 65 37 64 115 47 55 70 123 105 105 102 33 96 96 34 61 57 89 52 56 10 64 63 110 45 9 38 29 23 0 14 66 37 79 33 61 111 103 37 68 61 14 79 32 87 113 93 19 55 20 75 65 61 116 
27 107 0 65 113 0 42 2 43 57 58 77 118 45 32 7 90 93 123 44 102 85 10 70 82 65 91 9 107 4 0 112 111 102 52 76 80 95 79 123 27 114 52 122 34 62 107 102 7 105 21 110 43 8 55 102 50 123 111 33 3 112 20 91 66 49 43 21 121 99 122 0 88 26 100 100 88 82 77 96 39 75 81 59 84 113 36 9 112 23 19 115 112 16 58 53 43 101 52 39 52 49 40 16 75 117 116 16 51 68 112 90 18 45 2 79 33 38 66 20 38 85 112 25 102 23 56 20 101 108 36 29 9 53 45 61 45 13 77 96 58 41 39 53 63 41 8 97 79 74 94 118 11 59 120 90 82 51 87 58 11 124 87 122 52 109 36 75 99 90 46 9 7 62 63 47 103 48 19 35 99 114 28 110 48 0 76 107 29 38 40 17 
14 105 15 67 66 51 119 41 16 40 27 0 103 90 48 58 13 44 93 89 10 98 75 58 99 3 17 3 41 58 122 33 15 12 100 81 40 71 99 34 111 2 34 66 69 59 102 60 104 70 24 114 44 99 25 120 102 42 100 121 77 97 29 92 87 106 26 2 29 102 36 15 104 48 59 49 84 36 109 40 83 110 30 104 85 32 99 39 51 51 12 106 24 18 73 111 101 76 90 5 54 2 123 33 27 34 59 111 47 20 27 5 6 34 110 68 43 61 107 94 113 97 75 12 115 1 100 69 77 65 74 6 44 49 17 48 83 53 35 5 74 39 11 57 73 98 0 93 11 84 62 124 56 115 113 24 93 88 93 45 6 19 29 27 69 23 76 27 76 88 10 2 2 123 59 52 96 59 20 107 19 59 84 52 49 72 76 17 13 21 40 121 
41 46 0 87 69 76 114 20 39 101 0 18 99 59 70 47 96 67 7 92 2 91 19 28 15 73 23 5 94 63 1 112 86 2 74 30 55 41 27 72 119 27 90 94 64 13 16 35 80 23 2 59 91 21 88 107 71 111 112 41 26 91 5 112 70 57 17 0 75 21 49 69 49 117 15 113 5 32 23 62 32 2 122 124 23 62 106 95 48 70 113 74 36 95 61 106 4 55 84 79 76 8 1 102 0 16 67 107 48 67 22 81 69 121 57 70 58 38 17 106 108 5 32 122 77 93 80 82 0 39 13 76 25 14 31 25 8 98 110 56 41 7 114 110 3 46 55 61 61 49 19 22 31 51 19 109 121 99 43 121 116 56 49 16 48 80 18 56 54 105 89 72 112 56 34 92 79 67 5 16 116 24 15 23 52 34 7 48 110 50 21 78 
83 71 94 6 3 90 39 57 70 4 106 35 60 16 104 14 83 110 7 74 9 22 97 39 56 81 87 19 108 86 97 67 32 44 50 12 111 90 47 33 94 28 45 6 44 25 20 2 10 28 54 121 27 26 35 61 85 100 80 68 61 29 112 70 50 38 82 13 105 106 47 74 10 92 57 54 94 54 34 104 82 88 78 87 91 113 23 51 65 103 120 103 109 107 25 12 122 108 25 102 89 72 28 76 17 85 6 111 15 17 68 74 105 21 36 71 111 59 123 52 14 95 30 124 77 56 11 75 16 36 52 82 86 81 11 80 18 17 43 33 11 111 108 116 7 121 39 96 56 37 23 70 7 30 46 62 63 34 12 56 48 41 116 9 99 2 66 118 19 109 26 30 96 111 123 80 108 37 51 16 52 51 86 36 59 110 98 122 19 87 31 67 
4 22 53 80 24 119 73 20 104 77 27 52 40 25 7 23 39 36 16 91 87 80 105 123 65 78 98 84 18 4 4 124 26 34 79 50 29 5 47 110 82 74 37 99 76 44 100 115 57 116 59 122 71 39 120 11 94 93 73 89 97 54 88 100 88 43 2 117 25 49 79 84 123 116 58 74 13 33 42 70 25 78 44 73 94 40 85 63 110 10 5 60 64 93 35 4 113 38 99 13 87 53 97 63 45 8 114 35 41 31 82 43 86 2 117 55 19 54 96 4 64 101 41 105 69 77 109 35 92 83 48 31 12 123 94 34 6 61 46 47 69 3 68 31 107 60 86 1 114 34 108 53 10 24 10 57 78 119 92 45 78 117 54 67 115 0 78 98 61 124 123 6 2 66 37 110 103 100 88 92 10 71 122 122 73 7 31 3 1 123 49 56 
93 80 100 60 80 53 34 17 52 9 23 55 75 37 17 53 12 82 122 124 29 119 122 79 103 28 82 81 4 108 115 74 63 90 9 121 19 20 13 71 29 13 103 81 27 120 111 39 78 108 16 84 79 115 15 34 18 97 116 124 58 106 50 98 71 60 94 90 57 107 14 64 97 117 20 124 90 109 16 20 92 32 81 24 22 96 58 17 45 26 119 103 7 44 77 56 81 46 123 116 6 12 55 80 5 52 80 95 36 73 92 106 105 48 107 104 19 40 121 41 44 115 20 51 12 74 84 93 120 83 84 103 95 116 59 77 44 116 24 57 64 116 15 21 39 122 0 35 15 121 77 59 89 74 87 101 23 47 46 120 107 6 99 77 99 10 30 18 1 31 76 42 23 68 63 39 66 63 75 81 36 4 117 0 78 79 78 101 103 102 96 85 
