P3
64 64
255
57 124 73  33 55 22  44 3 48  84 65 40  117 42 112  3 77 104  90 112 53  44 84 32  60 58 99  28 66 85  97 76 12  17 60 8  104 24 79  71 92 47  18 86 110  120 103 91  69 107 1  28 83 69  43 115 124  71 30 28  97 41 49  24 51 103  102 33 103  58 48 106  10 13 115  64 63 36  50 44 115  94 4 1  17 70 105  29 76 48  63 123 5  7 2 66  91 87 63  19 1 22  121 78 12  108 52 22  44 29 109  106 120 50  10 48 17  24 93 37  10 57 94  8 20 93  113 30 6  87 67 115  82 102 17  71 70 87  46 26 90  81 113 57  116 40 15  54 85 6  97 98 95  69 79 98  39 10 30  1 123 6  63 20 113  94 95 94  116 34 101  19 113 113  94 90 50  34 123 72  10 92 22  39 122 10  121 10 123  45 19 93  
110 40 0  34 42 11  54 27 119  45 68 21  67 65 116  33 44 22  53 47 75  85 37 86  58 2 11  0 85 118  120 26 17  64 124 81  56 51 122  60 94 109  5 39 32  15 68 19  55 80 105  6 88 2  51 108 124  81 94 13  58 122 26  99 78 106  31 14 44  25 9 55  54 98 54  10 112 45  67 25 75  6 64 97  23 79 50  25 101 37  54 47 4  6 123 65  3 74 84  4 53 108  72 107 23  72 55 51  53 99 5  116 25 69  120 35 16  23 30 8  57 76 53  16 107 86  3 114 69  112 8 91  95 12 8  72 31 88  89 123 2  54 108 75  4 85 40  72 105 105  80 46 107  113 0 51  35 107 113  114 93 110  104 43 107  85 104 15  63 102 42  18 44 92  122 19 20  53 98 103  123 10 33  84 31 55  74 7 98  103 22 45  
75 106 105  78 25 20  33 8 3  51 75 59  30 4 82  74 49 42  124 21 60  4 108 95  40 98 25  96 104 68  121 49 105  121 26 124  119 83 71  21 64 60  98 1 65  3 51 51  80 80 43  24 24 38  70 25 12  33 38 117  8 50 74  70 7 11  65 41 35  93 53 65  85 117 28  102 57 16  35 75 49  2 46 37  39 0 16  17 98 92  65 99 70  123 95 36  114 54 55  54 3 64  41 106 54  110 23 92  95 116 80  117 102 64  73 26 61  116 16 46  103 46 36  45 120 115  33 78 2  100 86 63  94 33 102  77 45 31  67 16 6  15 49 101  97 36 103  74 108 61  31 15 85  91 30 98  31 95 41  44 115 77  36 103 0  9 42 74  101 46 76  41 92 20  9 116 85  8 86 119  18 93 59  75 17 64  68 14 75  43 28 29  
34 102 115  4 40 21  60 83 48  115 11 2  64 1 112  50 120 85  40 67 85  122 37 49  72 90 68  79 4 39  104 1 25  39 83 33  50 89 45  92 96 38  43 88 61  71 94 121  122 38 109  112 35 110  37 59 114  34 109 42  19 115 45  101 36 75  69 6 28  73 48 14  4 3 54  15 16 107  49 115 121  79 106 75  78 82 32  16 29 102  92 25 39  90 122 122  4 67 16  48 12 29  39 83 28  32 11 2  91 121 57  121 80 55  119 55 96  62 43 52  107 69 41  73 27 106  70 53 64  39 49 16  85 46 43  2 86 94  25 35 123  44 105 68  61 56 117  66 74 96  14 120 86  16 107 83  78 52 35  58 51 114  91 59 86  29 26 16  40 22 114  15 9 63  66 2 54  34 37 120  61 81 40  52 107 82  104 9 97  2 87 10  
69 25 2  66 86 95  49 112 9  81 15 27  48 14 44  43 25 101  45 71 106  1 120 86  57 10 53  55 48 12  44 96 3  46 50 18  50 114 12  54 13 18  14 0 110  40 114 119  88 8 27  92 66 89  45 60 75  118 116 97  71 37 1  109 3 71  73 0 3  121 79 43  94 96 70  14 79 5  35 80 113  92 13 7  44 78 18  75 105 0  96 72 120  87 43 108  102 11 74  25 5 28  107 48 123  14 95 37  9 110 99  93 40 55  118 55 10  34 25 71  26 101 1  84 33 89  62 4 73  100 12 35  3 34 92  40 85 67  15 82 66  103 62 113  94 15 123  28 63 11  10 90 103  0 19 7  31 51 36  56 44 114  26 84 2  108 14 79  19 28 46  120 38 72  24 43 104  8 106 52  38 38 109  19 4 106  86 112 103  24 38 119  
5 91 33  24 111 34  67 84 64  59 26 49  16 92 110  89 77 23  81 45 61  124 60 106  97 28 48  70 87 47  89 21 90  111 112 88  112 31 76  105 71 88  3 75 100  84 4 117  69 80 7  59 27 29  7 22 8  81 28 122  21 81 68  91 25 71  120 79 99  4 19 50  120 41 99  80 118 38  77 3 50  37 90 24  10 83 15  34 3 84  61 7 48  54 65 6  20 28 1  44 119 95  94 85 47  48 0 94  100 56 118  96 119 45  19 110 17  64 24 111  19 120 62  36 100 59  74 90 72  10 93 53  122 6 116  93 23 97  14 17 43  114 53 81  21 91 105  86 114 103  120 27 62  116 97 71  101 47 61  23 111 105  107 8 116  53 37 50  40 28 7  108 45 14  1 8 69  35 13 54  0 98 42  8 62 26  111 21 123  89 109 67  
119 92 78  109 12 20  91 2 47  123 0 120  23 42 45  53 50 18  67 63 33  22 51 9  96 111 13  19 31 107  69 111 106  66 4 4  64 115 37  91 47 2  10 37 66  106 49 88  2 74 34  83 0 27  124 54 109  19 114 76  62 104 9  32 83 100  9 60 3  16 71 100  3 54 96  53 36 108  116 88 45  18 62 26  97 94 16  79 76 92  70 120 99  87 51 67  76 38 94  71 104 35  4 38 98  103 117 98  88 8 54  51 93 56  74 5 79  26 113 21  69 114 12  41 68 116  58 23 120  123 86 26  18 102 71  36 103 103  63 110 6  58 93 54  119 73 52  17 78 103  103 45 21  100 79 87  32 69 31  35 93 93  110 109 20  28 15 45  29 75 77  62 113 37  16 34 83  50 59 55  31 24 39  93 11 8  49 47 69  80 17 40  
35 57 55  64 27 116  85 91 56  10 85 37  28 55 85  75 85 92  109 113 75  61 100 120  74 102 53  58 42 11  52 114 78  100 39 97  95 105 69  66 96 24  14 112 81  33 1 44  51 80 19  0 8 87  6 111 95  58 24 72  8 36 22  0 64 21  124 20 33  87 39 4  71 36 36  10 37 48  118 10 113  71 88 71  16 38 60  82 92 118  25 18 38  40 11 16  97 119 82  9 53 18  4 31 54  57 37 78  46 72 34  74 41 9  63 50 58  61 96 60  24 47 113  56 12 1  77 120 36  79 83 105  31 80 95  89 112 11  62 9 60  44 6 110  33 109 64  117 119 16  124 20 15  77 47 17  105 6 10  30 75 61  119 70 102  108 105 81  84 17 6  31 83 55  117 35 26  76 42 69  10 55 122  68 72 13  66 31 29  18 35 104  
80 82 114  32 63 70  78 4 105  86 6 110  29 51 116  11 114 30  122 113 68  11 118 119  63 118 14  2 93 70  94 87 67  57 32 97  109 73 90  69 10 36  15 103 42  45 20 62  8 108 99  84 88 50  76 40 2  117 78 49  41 84 119  67 3 15  79 7 7  14 102 29  26 27 5  9 77 11  47 4 36  49 4 73  15 103 61  68 77 85  73 87 67  31 101 86  63 89 8  82 97 11  41 121 17  108 53 30  5 79 40  12 110 56  58 36 58  40 34 61  62 63 4  26 26 87  95 121 52  91 33 54  20 72 102  76 87 82  62 54 57  30 32 68  8 39 93  72 31 90  82 105 117  37 124 59  84 49 91  115 101 96  47 18 115  49 111 24  106 46 123  71 69 0  113 56 109  60 15 51  12 62 73  120 49 19  25 28 114  36 95 18  
7 82 11  78 104 77  31 95 61  5 18 117  23 94 67  124 0 23  113 41 55  98 104 82  64 80 64  57 30 27  114 90 58  22 74 120  29 26 116  23 110 37  18 103 79  78 8 98  59 96 49  34 50 77  61 29 40  0 13 100  117 73 83  106 97 83  81 53 56  17 114 35  95 108 117  71 54 31  38 12 23  109 31 8  12 113 30  99 104 113  73 87 104  2 19 22  6 3 8  114 20 69  97 49 121  83 70 73  18 26 17  17 113 80  106 65 94  118 45 88  24 9 50  121 16 25  92 10 29  25 26 119  17 34 95  46 62 121  65 89 96  115 35 110  25 109 69  73 34 99  39 119 48  0 77 107  2 97 74  47 89 39  58 42 30  15 106 21  12 20 63  16 71 59  102 78 85  97 112 10  81 26 69  30 45 8  44 87 68  62 81 3  
93 51 101  101 108 106  46 17 61  9 2 124  22 115 52  65 55 42  26 52 98  52 42 1  90 11 114  99 7 94  55 1 75  81 77 34  122 68 100  79 72 98  53 4 93  102 49 56  27 31 0  22 101 55  73 77 49  44 2 27  59 77 45  26 99 84  20 15 94  52 70 20  39 100 118  117 98 117  4 68 87  75 38 122  32 91 82  17 87 8  65 55 45  31 76 94  120 87 67  10 2 19  110 110 81  113 101 97  76 110 49  72 109 123  98 88 21  57 84 6  95 77 98  14 69 119  11 107 17  0 71 26  115 119 6  99 42 25  70 116 114  116 41 65  6 59 22  97 59 63  22 85 24  19 95 17  23 53 26  1 83 47  68 28 8  124 16 53  5 81 61  100 44 50  33 60 24  46 114 10  56 122 53  103 25 81  55 37 48  120 77 95  
6 25 13  47 44 120  76 84 82  79 121 29  1 31 55  81 45 112  26 45 45  79 32 93  15 58 111  91 48 3  86 30 52  26 4 85  57 76 22  51 62 4  108 37 36  77 103 123  88 74 9  96 123 12  123 96 4  30 49 97  56 32 96  79 69 27  31 36 91  97 63 84  7 110 57  100 111 13  33 100 35  37 16 56  108 7 48  37 21 55  99 91 33  83 61 57  71 76 114  39 39 110  109 13 69  85 52 93  92 80 121  86 80 112  59 65 108  45 63 59  63 14 106  90 50 118  50 98 24  62 92 88  70 32 55  109 95 46  28 120 100  100 112 92  70 63 17  115 110 52  109 17 124  80 15 71  6 6 43  22 105 13  100 120 0  111 72 55  37 95 33  120 51 8  82 77 26  99 55 76  2 6 40  95 21 36  106 100 106  4 95 24  
107 122 53  98 30 3  83 59 82  107 63 41  12 79 62  36 76 94  122 5 5  29 6 94  92 108 14  38 67 14  19 68 83  54 115 55  12 65 37  72 54 68  113 25 124  72 1 113  80 70 119  72 76 55  69 94 113  4 27 7  58 107 56  62 91 34  120 48 60  83 63 117  105 114 29  85 95 38  104 83 39  59 70 23  123 119 52  112 116 42  123 27 4  7 56 50  8 85 42  45 20 78  103 78 3  123 82 21  50 30 80  121 9 59  97 78 113  35 58 33  24 48 11  122 49 85  14 106 94  123 122 20  92 8 76  68 86 37  21 112 7  67 96 28  6 31 44  38 54 30  62 108 92  65 43 6  63 101 112  65 55 82  26 54 82  39 117 50  13 26 45  107 0 57  4 51 16  84 106 90  75 119 18  64 63 54  1 122 65  53 79 107  
30 109 99  40 26 89  79 18 93  111 16 37  124 73 71  27 40 102  91 34 33  60 15 11  11 82 22  94 69 53  4 6 16  54 58 99  113 36 44  83 9 55  47 42 47  90 104 13  18 105 9  55 59 49  11 84 8  98 35 57  10 80 114  63 108 66  85 75 85  67 49 16  38 18 53  73 113 11  116 52 89  47 79 87  69 110 31  90 86 13  96 50 54  123 13 97  70 66 115  2 122 112  5 76 25  41 118 100  44 68 13  31 58 82  92 27 51  86 20 117  54 2 116  36 85 81  117 1 114  36 9 95  13 45 58  110 120 107  120 47 4  74 77 33  42 44 94  12 79 49  118 93 55  65 87 65  4 24 40  91 97 121  35 28 29  121 74 70  30 77 58  79 115 108  121 108 70  102 95 86  10 35 32  35 32 110  51 110 10  20 59 6  
105 83 27  124 49 118  44 41 124  81 61 110  13 78 7  22 13 45  101 58 73  107 50 106  89 51 124  10 49 45  28 66 22  81 43 20  43 40 101  24 53 14  112 45 19  68 56 5  106 3 99  105 84 12  7 99 109  20 53 36  13 39 63  63 107 37  33 66 50  102 117 2  29 40 110  1 27 21  64 115 114  27 11 5  11 59 30  100 34 39  24 24 47  99 115 91  117 97 21  85 84 72  43 42 101  115 123 24  82 13 15  8 2 60  94 60 62  117 111 98  8 0 58  69 37 7  69 93 10  61 30 83  82 53 74  39 32 52  64 119 64  14 87 95  73 67 63  117 60 3  45 8 81  118 101 25  72 62 74  71 21 42  91 33 60  13 96 123  107 45 42  68 52 64  13 78 103  73 42 50  113 46 43  115 63 61  16 68 13  4 42 7  
122 46 81  78 120 27  89 76 80  104 92 41  63 25 60  52 48 45  22 115 2  13 11 28  92 122 98  76 71 36  79 9 92  15 97 3  61 93 44  77 50 113  72 12 82  15 77 11  32 102 19  103 63 35  26 114 98  73 89 116  83 84 93  123 27 77  8 8 41  121 24 94  105 6 76  88 7 29  23 94 40  55 22 77  100 38 61  114 122 81  38 2 77  81 79 7  21 102 65  113 66 92  2 90 119  11 33 2  93 123 80  86 2 64  95 26 87  40 108 80  80 37 39  26 40 124  34 82 15  43 7 107  28 114 59  11 104 57  27 34 24  106 39 82  73 108 29  112 85 107  11 7 25  64 79 78  108 123 105  119 120 7  54 35 54  39 30 1  54 35 95  90 1 99  99 92 52  85 4 13  35 89 53  52 101 100  7 44 110  69 73 105  
18 53 52  119 24 46  112 57 70  39 62 117  58 52 41  27 67 112  38 107 33  82 31 3  107 52 0  110 95 19  23 115 74  92 68 43  75 34 41  107 119 45  43 112 79  94 18 80  123 49 32  65 18 58  51 122 27  117 118 111  66 106 82  18 13 51  47 112 8  103 46 69  38 83 35  84 23 37  107 19 57  12 109 23  10 5 73  94 1 50  9 65 68  91 99 121  69 101 21  35 123 92  11 3 25  12 4 39  69 101 39  114 9 111  19 116 2  66 24 22  120 6 41  36 38 7  78 68 123  3 105 58  123 62 55  24 43 124  18 68 71  75 25 31  26 80 85  3 73 72  37 36 122  87 64 70  5 57 106  75 93 41  15 100 17  75 23 115  12 29 5  98 32 56  98 103 6  77 1 112  63 86 16  44 59 57  21 9 46  19 110 15  
33 3 28  29 96 80  75 50 2  88 27 86  34 112 116  27 1 40  58 95 124  40 117 61  86 12 35  19 89 28  66 82 24  100 19 48  18 93 51  1 46 113  95 106 124  86 97 94  101 46 78  6 111 37  14 14 104  112 16 100  106 91 106  23 96 120  8 1 90  9 58 2  94 111 97  89 110 102  93 0 89  40 38 85  8 98 81  123 31 89  62 44 2  37 6 60  110 46 49  70 116 93  3 1 83  74 53 1  63 116 114  44 56 40  48 48 77  18 86 14  1 58 118  45 113 42  26 0 81  57 56 17  89 27 31  90 94 52  9 25 117  57 94 19  43 72 52  45 89 43  41 94 109  58 71 41  120 117 92  29 4 45  47 22 30  46 72 121  40 106 25  18 31 39  25 92 52  17 11 118  25 12 48  57 112 16  86 67 4  85 84 115  
20 10 31  63 18 64  78 50 4  115 26 86  115 98 33  50 59 45  97 79 18  67 32 30  96 51 71  28 22 99  77 6 124  76 79 23  62 8 14  32 59 85  26 50 16  45 72 55  67 36 39  86 4 33  87 87 106  34 85 74  94 71 19  78 28 96  66 48 23  112 101 21  53 119 63  77 122 73  56 65 15  80 98 117  4 57 58  39 124 58  21 114 6  121 30 36  104 21 84  1 124 9  10 12 45  124 25 111  58 38 37  27 75 17  60 96 99  104 93 10  96 9 48  48 60 73  119 42 104  8 54 40  94 91 31  36 19 8  24 7 120  48 30 25  95 51 100  85 18 92  67 74 19  36 65 113  75 113 118  78 62 111  21 122 63  21 77 115  78 94 118  121 100 124  29 113 47  90 41 68  29 72 23  52 23 80  60 13 117  11 17 76  
88 42 20  104 29 94  50 90 3  90 40 44  27 76 31  10 85 68  81 93 97  65 49 5  71 78 37  24 72 120  79 72 96  84 71 3  2 91 32  1 49 68  28 36 13  60 15 119  121 118 27  94 15 1  123 105 9  62 48 10  117 66 7  52 73 118  37 10 84  117 123 54  83 19 11  52 68 27  109 79 67  68 98 25  52 104 57  8 26 65  16 94 69  37 49 81  62 82 46  6 22 57  58 6 111  30 40 70  61 83 46  70 20 97  76 37 14  83 1 52  108 35 70  116 120 19  47 84 31  82 16 31  1 122 98  65 111 36  107 26 115  62 89 9  77 60 55  73 51 59  48 115 64  21 42 96  83 76 48  43 86 99  42 111 43  30 114 44  41 48 82  76 5 58  54 91 94  6 88 73  92 115 95  79 54 115  56 85 55  57 104 90  
120 40 0  13 39 50  82 61 7  45 89 68  17 81 62  121 91 116  40 61 114  34 10 94  86 117 73  31 102 55  2 118 105  38 92 13  49 58 108  111 106 121  28 84 44  92 61 61  59 39 40  64 4 118  56 34 17  25 40 37  110 84 63  98 8 82  109 31 25  85 82 25  45 58 96  7 74 82  86 82 65  85 100 11  78 113 18  115 40 72  22 93 1  89 120 1  114 60 44  80 98 106  84 114 20  40 76 26  66 98 65  119 121 3  33 40 8  3 11 102  62 43 32  12 68 62  79 96 62  89 59 45  16 84 11  78 111 31  12 11 56  85 124 72  92 6 23  44 32 34  37 80 57  3 65 59  12 66 121  61 57 51  62 11 106  77 80 92  100 36 116  15 71 99  52 62 105  11 124 35  87 4 60  23 56 48  27 7 19  91 40 96  
12 101 75  7 84 75  75 42 106  63 63 29  75 111 3  65 31 25  72 108 71  9 91 52  50 24 57  19 92 44  32 115 97  4 100 42  12 123 46  120 36 38  17 41 53  103 106 112  94 58 86  26 57 117  48 43 120  76 45 124  37 124 41  115 21 29  119 73 8  2 68 113  11 105 124  82 14 9  35 54 124  102 61 101  115 32 122  112 41 54  116 0 62  56 123 93  35 60 99  94 57 42  14 1 30  86 56 116  117 101 45  52 29 110  57 5 37  56 71 93  19 31 69  108 71 6  86 62 50  119 16 104  109 60 4  82 105 31  19 119 111  84 122 88  8 80 103  75 99 65  97 89 58  113 53 67  74 28 88  120 11 95  69 93 68  92 26 10  65 14 16  124 40 12  23 44 38  121 67 102  2 62 81  62 51 59  50 116 27  92 95 83  
110 111 90  113 90 33  4 57 117  48 60 61  7 28 14  122 25 32  21 88 10  106 34 37  7 16 10  8 12 4  109 16 74  35 71 36  84 74 100  100 12 78  5 7 80  22 7 123  122 62 87  14 113 96  44 97 113  49 58 19  7 12 67  54 97 116  73 4 13  9 22 29  100 12 73  120 111 80  13 20 94  84 27 18  83 42 26  124 2 27  13 21 124  46 104 76  61 16 75  47 90 64  82 121 38  107 2 60  100 58 120  104 34 105  85 124 41  83 66 102  108 71 90  108 116 8  96 44 58  68 48 85  65 109 27  11 28 6  115 48 14  6 104 112  57 37 14  4 112 7  68 26 47  35 62 75  118 59 58  103 32 32  2 93 65  19 33 60  73 26 36  43 65 24  29 57 52  88 60 6  105 97 109  96 29 50  43 45 98  48 62 21  
47 42 45  114 48 49  116 105 31  114 34 100  42 11 31  75 54 74  104 38 77  85 71 84  107 3 23  26 29 90  61 50 22  109 56 94  122 101 40  68 119 49  29 83 85  85 72 86  78 87 2  75 121 7  41 43 45  35 31 0  37 113 51  103 48 12  7 39 90  105 89 5  114 10 17  61 105 123  109 86 13  109 76 107  41 13 35  15 19 47  87 11 15  15 44 52  46 5 51  75 15 109  94 100 124  88 36 25  103 16 118  25 45 81  124 85 45  119 101 120  14 20 44  70 48 119  54 72 118  71 51 88  70 76 21  19 110 44  105 79 109  1 47 108  124 121 98  98 116 53  39 50 30  81 35 3  63 0 110  103 58 112  69 27 105  106 73 115  55 47 93  9 74 3  100 95 65  92 14 91  92 77 32  99 115 87  80 106 64  81 88 15  
0 92 71  41 69 66  108 83 112  66 69 107  27 43 102  31 68 14  72 96 99  47 91 90  54 114 24  10 16 27  21 94 17  41 120 115  97 99 101  99 71 92  4 16 79  1 122 52  112 25 120  81 14 68  72 116 3  13 94 29  37 53 36  123 64 36  109 43 45  124 79 75  108 79 11  113 111 47  76 61 67  37 113 60  78 124 18  56 46 28  11 37 36  14 10 95  52 48 68  122 105 13  110 62 28  40 17 26  99 76 109  114 22 18  17 1 113  18 90 116  46 53 110  82 27 58  115 44 38  5 38 52  11 101 46  73 82 1  46 108 53  23 80 115  17 97 65  43 34 0  69 19 110  72 27 103  85 92 16  56 32 11  64 26 83  32 26 115  12 67 48  88 48 57  0 36 71  97 29 16  21 12 72  106 96 61  7 70 66  124 19 16  
56 93 58  27 18 43  108 15 20  122 106 65  41 64 110  8 44 41  60 20 1  71 88 15  116 116 101  14 5 85  42 92 123  27 54 83  25 117 11  107 89 63  40 104 42  0 104 62  57 39 27  82 10 101  39 10 122  110 9 97  68 111 51  63 63 92  76 2 71  67 109 20  111 18 54  52 64 69  124 115 0  30 83 84  40 57 123  46 57 117  103 119 30  78 75 51  95 91 95  65 58 34  114 56 10  73 118 5  37 82 119  62 36 82  35 120 107  24 52 111  105 109 72  96 96 56  93 78 8  105 13 105  80 40 83  34 72 64  69 108 78  100 44 105  114 99 39  20 63 93  70 5 85  74 64 58  4 58 58  61 115 7  11 56 53  29 21 79  82 124 108  119 44 1  56 113 19  67 117 17  2 80 120  6 47 121  51 43 88  78 49 97  
119 9 61  105 114 19  82 52 8  116 76 123  51 33 62  76 113 110  19 109 16  74 89 100  20 27 49  93 61 31  59 0 73  9 19 98  69 42 46  45 51 10  72 16 26  104 13 28  70 37 120  8 114 4  122 89 108  11 38 100  104 85 26  71 29 70  49 121 92  13 14 112  29 37 72  2 15 21  23 21 34  62 93 43  36 63 43  36 82 106  20 24 73  51 72 109  117 66 115  29 44 28  59 1 39  91 40 74  93 114 25  116 113 70  14 1 84  68 84 45  120 55 29  103 53 93  63 78 15  59 45 58  107 9 83  10 71 87  88 12 60  25 20 41  24 51 93  16 80 28  54 66 113  64 115 62  20 15 101  35 21 26  97 63 99  56 16 76  55 79 86  33 1 97  48 14 1  83 124 29  38 45 91  68 97 119  43 32 89  23 32 93  
99 82 101  70 71 115  4 105 29  0 14 109  38 124 18  42 62 38  34 63 20  14 67 105  112 71 113  90 19 34  84 23 23  82 32 106  122 33 62  112 9 71  117 103 109  44 112 37  49 16 41  27 37 84  62 68 75  38 24 61  53 86 122  57 101 3  108 9 43  46 25 106  55 48 29  86 69 108  78 36 117  119 61 106  31 107 114  106 91 94  58 67 123  95 109 3  81 91 106  2 58 83  31 37 86  21 12 113  51 100 94  112 85 1  16 12 20  121 46 3  89 54 54  44 48 69  63 3 58  4 119 108  23 14 9  96 95 80  7 82 14  103 123 64  66 122 79  97 42 24  89 111 111  95 25 4  49 41 28  11 2 97  112 28 64  48 39 68  57 35 61  102 122 2  76 46 45  67 45 76  114 7 116  117 48 10  121 62 41  106 22 26  
98 103 96  56 54 0  119 57 101  12 92 89  74 8 103  53 82 42  46 10 119  81 75 78  85 55 14  57 15 42  108 10 9  90 70 95  6 53 44  121 103 117  53 106 61  26 13 1  86 31 37  78 14 42  60 57 75  5 70 84  94 15 37  9 67 48  0 34 44  42 20 60  20 30 86  83 46 70  10 84 68  96 121 122  35 76 68  85 3 53  6 13 121  20 11 110  117 109 89  15 97 6  117 33 59  11 82 35  45 53 112  40 108 9  15 6 75  85 79 8  40 75 111  14 6 9  10 29 27  69 108 104  94 15 17  7 93 90  118 39 122  106 71 20  102 23 86  40 103 12  81 46 85  62 7 29  73 104 119  78 116 20  84 41 93  28 21 61  47 1 6  87 54 8  28 116 110  107 98 66  6 119 112  88 113 7  66 4 104  16 40 97  
69 94 119  56 75 59  118 106 89  62 67 38  113 17 69  93 1 59  106 75 1  35 69 16  65 21 91  116 89 34  112 0 36  65 119 106  40 46 91  34 60 97  63 17 42  64 46 117  52 18 3  44 64 8  41 116 22  123 55 38  65 112 61  78 16 96  5 108 33  89 16 3  48 98 86  119 7 98  81 60 109  14 30 63  51 2 47  88 84 86  94 99 11  84 13 115  71 78 2  92 9 101  87 40 0  118 93 6  24 59 62  58 29 22  6 92 64  88 101 75  85 40 123  113 39 45  84 24 70  35 56 8  21 49 36  41 68 6  39 30 103  83 63 32  15 25 68  10 15 110  30 3 69  119 118 121  36 1 76  54 14 109  0 60 77  89 43 50  81 118 88  4 53 122  1 15 54  101 43 62  83 107 16  16 41 90  14 45 107  76 104 33  
48 45 95  123 31 73  50 15 49  97 112 40  90 92 123  65 23 111  83 2 92  39 83 39  59 85 86  92 46 49  81 29 120  10 0 32  89 6 79  84 29 114  47 23 13  80 112 2  76 54 108  94 22 47  46 106 66  52 42 112  85 19 1  89 11 34  7 32 93  2 17 59  24 1 62  77 116 7  70 49 32  121 32 21  21 56 109  102 72 31  73 41 1  62 0 37  10 26 55  103 120 15  1 103 29  7 22 76  33 25 45  121 77 76  101 109 18  14 33 38  29 10 103  89 27 15  15 110 10  27 10 88  107 35 2  9 103 122  14 87 21  76 22 111  106 8 116  4 44 124  3 19 13  47 91 37  26 84 46  4 60 121  106 123 80  24 82 63  123 93 110  43 111 10  83 82 59  6 111 73  97 44 83  106 92 44  121 71 37  50 14 18  
118 33 45  92 114 95  80 63 86  105 70 50  100 120 67  116 3 35  90 12 62  28 4 102  8 21 111  3 109 105  52 115 98  64 25 48  34 58 80  67 33 51  0 107 15  113 119 27  41 111 2  46 75 38  116 1 18  122 34 80  121 49 72  41 21 41  68 9 18  29 52 50  61 17 54  30 108 69  49 39 24  0 62 114  33 83 76  109 54 124  20 104 4  48 65 118  29 118 11  13 90 88  67 11 35  86 17 48  56 40 0  80 9 27  48 0 35  90 75 15  113 12 119  75 82 83  21 47 51  114 24 53  66 56 47  61 97 31  44 90 38  107 41 65  15 13 9  71 16 32  51 108 45  9 70 81  75 93 14  45 115 36  69 24 14  20 67 80  15 73 22  98 46 17  60 63 48  105 49 113  22 62 33  3 14 38  8 117 34  115 20 37  
94 112 47  99 0 58  1 31 26  93 117 100  73 53 75  12 75 38  98 38 39  108 123 35  13 95 124  55 0 118  18 118 4  19 3 18  49 4 63  85 18 10  96 43 4  60 4 40  26 116 78  33 12 37  19 91 22  55 84 56  58 76 75  77 22 25  52 73 22  37 50 110  4 75 63  81 0 26  122 21 14  103 123 109  55 116 3  124 61 112  65 108 24  54 47 7  81 49 49  32 86 69  59 106 123  58 72 110  97 13 108  56 121 31  45 22 12  24 77 117  117 26 17  86 47 105  52 43 68  98 23 24  1 18 17  118 88 19  123 2 3  68 105 68  83 16 114  108 96 124  117 10 31  56 120 75  16 20 7  72 78 83  104 52 6  7 119 115  38 47 98  4 15 11  43 15 84  84 13 50  65 73 117  23 94 23  117 32 72  79 120 13  
84 104 119  29 20 105  14 61 59  106 45 83  72 39 69  14 28 115  42 113 42  110 67 82  49 79 86  2 7 10  87 109 69  1 110 57  64 0 120  96 105 120  104 18 95  62 11 52  16 17 21  88 48 113  72 66 93  107 93 81  124 94 66  35 96 19  117 93 86  124 119 9  109 70 124  100 61 60  102 121 3  40 119 54  43 18 34  17 26 49  70 119 41  69 24 103  120 79 29  93 46 29  5 9 86  90 9 94  79 72 43  2 80 70  5 102 75  15 11 94  23 18 27  51 92 44  108 19 121  8 106 17  83 30 106  94 61 102  105 42 20  36 66 86  27 107 72  56 44 88  38 84 12  32 61 34  33 1 20  60 66 1  21 106 80  85 23 75  88 102 68  0 69 67  26 104 3  81 123 46  110 94 28  4 37 119  110 8 81  123 111 71  
63 56 59  94 116 52  62 32 81  103 40 94  94 49 12  76 71 73  58 53 59  40 102 17  64 114 19  50 71 27  115 42 41  87 3 79  71 59 118  8 113 62  106 76 10  5 33 11  68 114 102  105 26 18  78 70 75  40 51 114  71 97 109  44 34 118  50 8 121  84 115 116  93 70 99  70 12 27  106 46 20  91 78 75  42 28 16  10 66 37  6 26 115  8 100 48  45 17 14  6 10 65  69 82 42  66 71 114  57 1 94  108 53 91  67 0 66  84 77 33  85 94 65  123 71 29  91 43 61  49 113 68  27 4 84  22 33 75  90 29 82  73 109 12  69 83 93  52 28 99  10 109 73  107 98 29  40 77 93  69 65 101  110 72 79  114 5 74  45 6 37  106 113 118  54 124 120  84 119 117  62 17 9  87 122 108  2 67 29  54 108 44  
11 25 53  5 27 118  119 43 44  45 68 25  28 86 76  95 89 106  107 85 50  107 64 105  36 19 12  71 76 106  108 124 39  110 50 88  79 95 115  116 24 112  82 119 7  48 122 34  112 10 33  50 97 121  39 75 88  92 108 20  12 88 33  120 3 116  23 120 44  65 8 75  83 37 79  79 79 41  118 19 45  70 123 45  36 103 56  52 42 11  88 106 63  113 29 73  117 79 0  112 101 36  92 94 32  75 76 108  44 119 94  121 76 36  116 44 60  45 13 107  103 3 28  20 78 97  24 75 62  11 26 116  77 12 119  93 48 20  106 78 30  123 17 10  83 19 114  14 57 61  36 26 115  83 34 69  23 61 39  124 32 26  55 91 82  66 30 64  11 93 56  123 39 24  38 34 56  10 5 50  97 45 63  59 45 42  5 92 52  78 55 31  
1 76 3  116 48 117  6 110 45  87 32 44  16 123 89  106 25 104  31 61 48  84 109 3  8 81 18  81 66 47  109 109 124  54 14 20  63 10 50  22 113 103  38 86 58  9 82 31  48 17 55  37 86 121  36 46 8  78 94 94  16 82 99  118 82 60  100 95 6  49 98 62  26 34 55  78 14 77  20 80 68  118 59 16  59 36 117  27 108 95  48 90 120  59 109 1  3 112 90  89 102 46  107 76 106  95 72 123  62 11 82  118 20 67  55 20 21  38 74 27  57 92 105  92 115 18  124 79 52  17 2 91  41 4 49  94 31 43  5 7 40  103 87 0  55 69 62  106 97 17  51 32 40  3 15 19  4 20 81  79 77 115  50 40 66  13 61 58  2 2 123  98 118 66  90 14 56  108 66 88  54 4 98  7 105 121  36 69 78  17 74 63  
10 84 72  87 87 89  76 56 89  123 23 64  38 71 36  43 97 109  15 5 91  86 24 47  33 46 99  102 117 25  9 105 63  69 5 99  14 51 59  9 45 94  30 29 21  99 111 48  24 116 6  38 14 96  50 26 64  61 21 87  74 33 121  59 94 89  26 115 59  71 87 101  60 121 108  122 62 18  66 74 48  18 68 68  30 43 8  47 102 32  114 100 65  97 34 44  25 27 83  33 81 80  17 15 51  47 71 22  41 49 69  49 14 88  89 53 24  50 1 9  98 45 10  22 45 59  18 8 48  38 90 119  74 56 115  24 114 102  83 110 8  86 64 40  67 119 85  53 79 118  90 21 77  10 68 5  3 6 101  46 52 24  44 77 58  91 49 115  93 112 23  51 31 19  110 62 32  113 18 5  108 40 48  33 23 105  41 108 13  91 14 90  
67 51 44  97 116 67  7 32 111  73 101 72  122 3 9  108 88 35  112 100 12  30 98 2  124 114 46  107 23 74  16 38 64  69 82 75  47 78 25  80 95 19  64 16 41  117 76 66  84 94 96  39 47 76  27 116 66  116 66 119  21 113 98  34 65 110  78 58 62  122 13 24  77 25 61  55 89 116  30 95 33  23 54 48  5 18 27  65 112 31  14 39 32  32 123 63  84 96 17  114 114 47  111 21 17  7 101 102  82 30 119  6 109 79  103 46 90  43 83 33  4 0 17  64 27 69  10 74 69  3 78 112  59 56 56  120 77 18  109 86 80  110 95 16  96 102 31  55 98 42  51 74 106  104 51 112  33 69 82  58 5 123  86 11 21  11 25 92  95 39 102  45 18 32  77 107 44  102 76 20  121 49 116  90 36 52  48 84 9  81 70 0  
79 82 57  71 84 90  119 69 89  113 2 88  57 2 67  30 28 116  6 81 109  23 94 42  55 22 123  51 99 8  1 5 20  8 104 4  91 35 42  60 24 4  105 10 99  87 21 112  12 66 113  108 64 99  34 31 10  83 4 32  74 100 31  88 12 8  32 9 42  116 24 80  122 5 18  40 99 47  111 101 119  63 87 113  97 91 58  8 64 98  119 0 1  43 111 120  49 103 63  1 45 8  39 53 10  94 0 91  20 86 88  7 76 8  100 5 119  12 96 113  30 84 75  80 80 106  13 0 101  4 32 12  102 121 107  106 123 104  100 118 122  25 81 77  103 113 57  3 110 96  21 54 89  121 77 80  111 25 5  118 104 119  53 49 35  28 112 25  65 114 101  35 58 61  39 62 81  70 58 54  102 114 110  38 11 31  4 71 76  94 58 13  
54 113 106  48 75 62  30 113 23  58 19 52  105 31 58  77 99 0  69 87 35  124 29 67  94 32 12  31 73 1  89 23 9  21 11 102  19 99 89  17 74 93  10 94 6  66 20 85  13 85 43  32 101 104  13 6 86  11 29 6  46 13 102  109 119 5  32 87 79  120 7 111  106 104 18  56 53 62  39 11 117  103 100 80  35 27 62  93 109 58  13 105 45  50 79 85  117 104 72  63 104 1  87 23 74  72 28 59  58 120 11  113 10 56  120 85 54  76 38 72  123 84 28  99 16 95  29 75 67  3 91 63  42 11 90  45 30 45  105 44 67  62 8 21  47 17 87  14 78 85  122 22 84  41 94 30  117 115 111  51 15 124  97 55 82  118 117 112  17 50 78  109 55 70  64 38 104  34 30 109  123 88 96  37 121 118  123 13 31  9 21 50  
63 124 89  15 4 113  62 5 19  6 85 45  42 14 86  44 59 16  79 91 66  115 81 104  63 32 67  80 20 98  105 92 53  50 4 91  120 29 85  78 80 121  111 1 16  20 0 0  7 57 5  44 62 13  3 46 63  96 81 120  62 35 92  102 61 55  33 93 69  73 105 1  52 38 49  86 38 7  62 85 95  34 93 74  0 67 113  57 49 97  47 55 34  94 62 106  61 15 7  101 16 121  11 63 56  22 78 120  64 100 16  95 69 73  43 72 93  44 24 1  26 50 54  54 69 46  49 57 29  98 100 88  73 106 53  62 5 78  82 7 43  73 22 6  9 61 22  97 3 22  59 41 115  36 78 25  70 88 73  38 113 59  42 113 102  62 87 27  35 103 23  119 70 18  15 82 61  73 109 72  104 19 77  114 32 71  106 18 44  118 75 73  
114 107 5  65 99 92  31 34 52  12 83 110  4 37 55  66 8 87  41 113 61  6 121 86  91 63 57  10 63 123  31 43 73  122 108 68  14 45 93  111 6 28  40 85 106  103 97 115  4 89 94  37 24 33  53 85 57  102 104 21  41 25 89  47 14 57  96 120 105  59 26 100  110 77 82  20 124 118  28 10 34  47 47 37  66 10 6  73 2 109  9 14 65  113 42 62  86 110 72  60 29 65  24 23 3  76 61 84  77 61 93  74 84 9  2 19 21  15 99 60  109 25 120  34 19 29  52 35 56  38 101 36  77 74 68  31 26 70  98 47 98  114 8 87  45 100 124  74 35 64  27 96 122  66 81 20  21 88 74  45 27 14  100 112 96  8 24 64  44 96 100  79 115 82  48 15 5  118 22 75  5 30 4  122 7 59  13 71 22  45 4 19  
108 13 106  46 16 104  9 6 78  120 15 112  66 4 67  120 20 17  19 53 121  105 6 55  85 121 35  55 38 78  94 13 21  39 48 97  5 62 108  111 106 66  112 9 40  56 74 37  20 76 17  120 80 28  3 19 20  26 39 121  108 103 49  62 14 68  58 87 43  43 67 31  14 45 79  74 90 111  63 62 30  43 40 70  78 28 6  62 104 1  80 51 6  70 61 0  69 71 2  22 49 116  112 111 66  118 45 79  24 1 113  4 94 85  121 82 122  82 46 8  110 33 115  121 76 48  122 90 3  103 12 120  94 7 49  109 12 97  91 110 86  24 59 71  61 55 9  84 15 56  70 68 95  22 2 32  47 42 118  84 123 116  54 123 98  3 36 97  18 54 17  50 77 104  69 103 28  4 118 61  118 82 90  73 103 67  39 106 41  26 2 71  
0 59 47  23 26 77  24 13 80  54 40 66  110 74 33  111 119 124  65 120 61  114 46 3  17 48 100  13 2 61  22 10 106  119 66 107  102 24 43  23 34 95  74 52 24  73 47 48  48 4 118  100 46 51  67 119 12  21 24 8  97 52 89  51 113 79  97 72 121  97 110 117  1 81 62  98 106 88  28 3 14  17 44 10  69 11 110  97 85 93  47 77 20  84 46 123  60 114 9  86 64 123  117 1 73  48 35 122  25 49 38  44 50 27  34 27 116  44 41 37  1 14 37  17 44 120  64 50 73  66 69 64  96 114 45  53 33 28  26 27 31  25 27 4  27 101 10  8 72 88  9 37 66  117 96 112  108 22 112  124 15 46  87 110 117  57 34 60  93 72 110  90 52 95  42 36 8  84 112 18  49 21 100  11 50 41  123 3 36  27 28 62  
87 88 108  80 122 62  0 75 5  16 49 100  107 103 44  22 14 102  92 5 81  42 111 62  24 110 104  65 94 24  26 79 31  0 8 69  25 12 17  60 39 9  63 118 48  75 2 49  79 124 70  111 79 63  66 10 117  105 31 36  43 61 3  24 54 72  74 45 73  8 43 8  14 102 68  77 102 25  52 38 105  90 104 86  26 123 30  47 30 100  50 80 38  109 112 105  53 1 121  106 39 3  35 95 106  34 88 96  85 79 113  30 3 9  39 101 49  12 51 84  114 28 12  46 20 13  32 10 95  99 107 85  93 45 70  82 18 9  65 60 34  32 65 46  57 25 42  103 71 98  44 36 37  49 33 27  114 106 28  43 18 106  113 82 112  46 100 50  2 108 77  85 49 5  46 16 16  87 21 15  94 57 45  28 16 119  67 39 95  17 24 61  
26 24 66  121 48 14  30 44 91  18 8 105  58 89 108  39 80 110  74 81 57  87 114 4  67 9 81  36 20 79  67 102 124  108 82 80  84 7 1  64 15 57  112 91 45  3 107 3  105 87 3  4 67 115  45 87 40  110 4 28  11 24 45  101 10 120  119 72 29  33 69 51  71 22 49  93 119 12  72 71 37  71 4 63  109 101 47  14 123 27  27 111 54  32 25 47  81 37 67  89 40 78  27 28 45  42 115 42  102 19 94  86 27 112  58 81 50  69 92 49  12 32 71  43 94 54  97 121 117  9 119 64  49 101 121  89 48 89  42 54 101  48 72 86  66 62 91  104 98 107  113 117 49  77 52 33  41 23 63  21 103 56  122 98 103  40 94 67  83 87 123  54 15 7  33 85 76  120 49 64  40 29 40  27 72 114  121 104 56  31 30 75  
62 123 10  4 67 74  47 57 27  5 58 6  17 61 0  76 22 52  50 44 116  102 114 4  63 40 123  109 0 57  73 1 28  44 99 12  70 83 68  4 37 0  69 47 43  54 78 81  16 96 47  24 21 67  23 78 107  75 29 118  21 108 99  23 59 77  99 6 53  28 34 63  4 12 15  92 7 68  8 34 66  3 37 87  114 16 101  1 50 32  24 72 24  108 14 89  99 99 12  60 107 64  31 1 72  13 123 77  20 15 98  56 0 77  27 65 11  17 114 36  121 23 32  39 4 104  31 77 17  43 16 29  93 61 96  64 6 6  14 46 21  93 34 91  37 68 87  36 0 27  57 92 73  105 41 116  27 117 86  124 17 70  95 54 41  90 59 96  5 59 36  111 45 59  25 69 7  103 63 7  31 34 83  32 29 100  91 46 113  94 1 85  
109 114 4  63 57 9  116 118 14  113 110 47  123 24 87  90 104 96  108 84 97  100 84 43  29 10 13  84 70 103  17 56 42  68 99 71  60 7 53  101 111 20  1 115 92  94 33 65  100 81 82  46 14 20  52 121 32  92 56 0  115 52 87  21 18 26  21 21 87  29 39 58  74 31 98  63 29 73  52 101 5  99 81 10  9 120 42  90 41 94  3 89 61  76 100 30  118 5 3  90 119 97  60 63 123  2 86 109  33 114 77  3 52 68  100 46 100  113 91 59  13 82 39  91 38 17  14 82 69  68 108 61  6 2 4  52 95 43  13 41 55  77 105 50  72 30 0  16 78 112  15 71 36  1 80 29  46 55 0  15 107 24  82 32 111  57 22 76  72 14 66  69 105 83  64 79 63  48 72 96  0 80 77  61 69 96  116 27 22  67 51 16  
112 1 110  99 51 20  49 66 103  32 78 86  100 91 36  25 64 69  123 93 24  110 105 25  77 62 109  93 88 53  82 53 75  100 0 100  75 105 77  59 58 54  22 3 45  65 102 41  42 100 97  27 52 110  34 23 31  100 48 105  39 87 123  121 102 49  84 44 114  6 70 34  43 100 90  34 16 59  17 107 97  5 52 124  54 45 4  85 31 114  53 98 98  73 120 91  64 33 0  115 43 95  11 71 44  62 50 105  93 62 57  36 60 64  57 98 110  22 59 31  36 40 20  10 100 37  108 121 48  23 49 32  2 17 29  116 46 100  108 76 105  24 123 73  35 10 105  30 70 120  4 76 27  41 2 94  46 26 5  26 103 82  2 94 20  102 5 96  120 38 5  121 112 79  41 12 106  32 78 120  97 16 87  112 62 70  85 113 117  5 85 72  
19 83 37  72 25 76  26 108 39  27 124 35  2 109 90  94 99 77  115 24 96  25 29 115  14 84 19  32 17 122  68 34 71  66 102 79  9 17 42  37 34 122  60 86 43  7 119 62  78 16 121  30 52 53  96 47 60  14 8 63  75 62 121  64 75 91  65 53 82  25 100 31  90 33 25  6 58 40  63 25 121  14 61 3  15 86 94  54 85 110  52 17 106  120 6 23  83 119 0  112 18 105  14 80 99  11 70 82  36 39 65  56 57 19  77 72 75  73 11 27  37 86 19  101 97 75  107 93 123  101 53 3  15 32 73  108 85 121  76 119 80  122 20 121  112 116 2  124 105 108  20 96 98  68 77 104  22 119 21  116 96 106  107 37 11  58 64 87  81 117 1  45 58 120  97 47 74  123 120 90  28 47 40  22 69 69  123 43 12  36 36 60  
104 29 112  108 24 18  121 51 68  23 98 42  102 14 27  114 40 21  120 123 14  3 53 92  16 120 73  29 98 84  60 80 96  89 39 90  73 25 83  65 111 9  50 24 88  118 65 9  14 93 72  14 71 75  16 69 122  99 70 21  69 69 9  38 89 53  65 97 102  122 41 116  38 73 8  55 51 51  17 40 9  116 91 4  122 33 56  7 32 53  98 89 83  66 12 41  58 61 85  2 96 12  94 113 67  119 1 15  107 122 28  65 37 8  67 106 107  97 88 56  35 19 32  36 103 24  48 107 115  86 60 51  21 44 103  64 85 95  8 102 33  116 107 110  82 10 121  86 40 22  31 17 13  99 43 2  68 41 17  63 91 0  84 20 5  63 40 83  5 91 66  3 5 35  39 78 55  61 106 12  90 23 75  95 88 93  52 1 13  63 116 114  
30 124 106  46 56 23  112 84 14  29 94 41  103 85 65  65 31 43  112 9 39  41 43 91  120 108 38  52 43 117  39 15 93  8 122 53  57 112 102  107 6 43  73 71 44  13 19 44  85 124 31  96 49 76  114 73 9  39 42 39  87 75 101  38 76 33  53 70 2  117 11 66  72 38 97  123 7 111  45 55 8  121 25 34  71 71 52  70 66 15  97 119 54  115 120 44  17 70 117  7 3 124  109 58 31  62 81 83  59 26 119  4 73 20  80 107 95  34 72 34  115 81 41  40 37 31  26 124 41  28 99 98  121 57 44  118 27 8  121 119 121  70 62 97  29 118 89  47 29 106  87 88 7  51 16 89  115 120 16  118 1 15  0 89 116  14 56 98  0 123 38  122 4 57  97 123 3  123 120 63  123 66 37  27 0 98  78 52 40  34 20 80  
58 16 27  123 8 61  7 12 90  31 78 72  59 28 22  93 3 96  42 90 76  26 87 3  91 104 23  64 92 48  1 75 30  17 79 37  32 61 50  69 39 82  67 106 15  65 100 124  93 74 12  61 4 91  65 66 97  80 110 91  40 40 92  31 16 70  89 40 39  20 32 22  79 15 51  115 72 7  28 83 0  105 8 73  28 42 2  110 33 93  120 116 16  40 70 104  7 44 60  90 110 40  41 87 114  34 51 100  20 42 59  119 85 26  1 9 20  85 16 64  34 38 63  117 23 58  58 19 110  99 27 112  32 116 43  35 88 93  14 37 6  7 55 10  2 23 3  38 110 90  24 25 60  112 41 7  43 120 58  98 70 19  89 70 28  101 121 40  106 109 92  63 57 90  55 89 57  5 84 32  68 45 114  97 102 104  45 60 1  110 39 116  
1 118 25  120 0 44  121 77 107  69 79 101  122 60 92  15 91 28  33 82 5  24 107 33  2 46 58  104 119 50  28 107 57  30 43 5  56 59 111  1 30 41  51 3 52  51 108 42  6 86 52  2 53 121  29 71 121  118 62 123  93 68 38  38 118 70  84 87 87  97 16 36  60 1 57  116 99 68  3 66 41  23 59 4  57 111 32  108 111 25  77 32 78  19 119 19  21 48 121  114 29 74  61 65 115  122 31 18  120 79 5  3 76 28  78 116 55  79 37 70  78 44 115  18 56 31  106 92 107  58 100 15  33 54 104  22 45 62  82 110 43  86 124 80  114 63 1  20 20 7  46 38 14  16 38 83  44 73 87  44 97 90  42 101 19  33 122 40  82 66 34  57 124 16  1 6 49  47 57 16  96 47 16  68 8 80  51 4 102  7 24 12  
3 55 53  111 49 52  35 42 105  119 44 43  82 78 89  53 74 114  57 24 5  6 39 104  99 7 88  76 39 118  44 71 36  49 21 35  49 52 124  5 100 4  77 34 9  11 25 94  99 63 88  86 96 8  124 93 5  29 84 72  10 97 45  91 5 62  122 104 88  89 53 39  7 71 37  120 78 79  9 23 48  26 102 113  94 16 15  12 102 100  28 121 47  36 24 83  117 94 99  60 78 40  16 0 114  3 66 29  56 34 61  110 37 85  116 14 92  38 84 82  51 99 32  77 93 108  98 95 56  29 117 29  10 75 33  5 9 55  98 67 41  84 94 0  54 17 19  105 120 3  16 41 88  65 123 122  75 9 51  17 60 23  107 91 34  99 35 91  5 122 101  80 104 38  44 123 115  22 50 121  61 61 32  106 99 65  35 114 21  12 108 95  
20 12 53  80 14 108  6 46 35  9 46 66  98 27 3  24 94 45  93 28 99  26 67 113  83 23 93  25 0 49  55 108 50  106 73 7  61 17 117  54 109 15  50 65 99  84 6 59  110 116 3  119 35 28  63 43 71  22 17 58  109 15 60  78 116 39  81 73 91  117 78 73  91 28 30  122 56 103  54 32 43  4 17 58  115 111 82  65 28 90  64 23 103  84 88 51  43 11 74  63 17 101  55 58 89  18 3 28  13 106 73  7 123 99  76 58 119  19 54 42  4 27 109  57 10 30  62 50 119  3 106 23  97 37 81  78 6 87  56 103 40  101 53 7  45 7 12  97 83 8  49 3 70  72 93 25  50 39 34  100 33 75  18 8 89  10 92 66  109 11 33  30 7 67  56 47 98  21 96 79  26 80 122  86 7 79  40 30 83  102 68 76  
14 97 41  79 50 69  14 55 0  36 78 18  99 31 26  16 121 42  75 77 68  108 55 120  64 56 13  8 11 35  119 86 34  96 100 73  7 50 90  6 86 116  114 29 76  92 99 15  55 24 110  56 94 80  0 99 58  106 16 122  54 121 111  46 52 112  119 90 109  20 75 70  107 32 21  78 96 24  24 84 114  77 10 121  52 94 56  31 16 37  17 96 96  106 2 13  122 124 19  56 1 59  38 2 120  13 12 65  77 110 92  7 122 7  74 91 105  67 66 99  101 28 9  24 116 84  115 91 47  106 34 44  75 39 37  26 60 116  105 17 110  75 87 45  49 6 70  92 24 92  26 50 21  84 42 2  3 39 98  79 124 14  108 37 76  86 105 84  35 72 104  103 7 95  104 51 9  18 99 27  13 46 52  35 59 4  45 71 27  68 24 57  
33 5 91  12 1 27  46 70 78  110 104 41  32 65 101  92 1 8  65 100 41  61 75 52  74 82 5  96 98 98  108 124 35  90 70 35  68 56 98  57 71 36  36 15 69  95 73 110  114 27 111  20 80 11  10 111 72  27 10 54  47 117 14  1 91 12  53 41 68  110 95 18  38 118 115  14 49 25  22 22 62  3 77 124  34 26 86  38 118 59  66 19 116  115 111 22  8 82 117  25 52 81  94 71 115  110 32 103  116 65 48  46 15 65  6 78 2  34 46 78  114 37 98  14 28 56  114 68 52  77 82 92  50 46 33  65 90 20  97 14 37  36 4 117  111 104 91  11 78 88  82 110 34  103 93 84  47 122 108  107 64 92  61 12 37  120 63 72  110 66 102  113 115 117  89 46 35  43 87 10  21 17 119  39 72 55  114 30 45  34 56 98  
78 87 98  22 73 70  79 77 47  37 28 52  63 71 107  49 58 102  34 117 91  29 116 61  39 39 59  53 120 32  51 46 123  81 114 8  48 88 11  76 35 96  68 36 42  103 115 96  66 0 40  98 79 2  33 26 87  43 48 70  100 60 38  79 59 107  17 23 75  69 21 2  27 25 0  54 51 77  60 22 2  84 67 0  88 13 120  123 93 37  94 112 5  119 25 12  122 43 58  106 26 32  6 66 113  3 95 26  27 119 73  119 72 99  106 122 107  44 12 24  81 104 62  74 119 107  21 107 41  41 102 11  33 82 102  23 79 71  7 124 90  92 26 121  82 40 89  20 48 84  113 29 57  1 120 93  86 16 56  14 111 92  116 46 46  22 80 96  72 102 0  101 30 48  121 119 123  88 54 47  60 99 122  15 113 6  40 70 108  44 103 29  
91 59 43  44 85 67  124 114 36  104 90 24  69 52 61  30 94 78  38 88 103  103 85 75  55 107 73  65 55 111  27 87 36  14 39 77  99 66 9  41 33 54  107 26 20  106 40 73  14 78 43  74 1 2  20 115 120  2 46 103  94 45 99  80 101 27  85 30 30  101 46 58  29 91 27  123 87 65  4 84 36  16 92 71  59 6 64  84 69 78  67 44 31  119 6 26  86 43 92  21 124 3  51 80 73  109 78 35  85 79 3  117 54 85  50 56 41  11 114 65  51 121 37  70 12 14  95 74 90  106 49 43  54 94 69  15 39 103  14 35 26  26 68 27  32 111 84  23 42 32  26 88 49  25 5 6  75 4 112  99 104 106  77 90 62  70 3 4  42 109 66  114 35 10  20 67 7  42 65 11  111 93 79  5 80 62  111 73 85  119 8 70  
83 11 84  60 122 29  87 49 36  29 92 99  111 32 58  104 93 33  28 68 66  30 118 76  28 17 32  73 113 95  47 1 92  89 67 79  56 43 2  12 44 73  119 85 10  81 66 42  4 69 108  18 25 4  30 81 63  106 34 73  121 110 29  9 19 76  3 19 69  41 44 2  18 107 65  33 2 50  56 73 112  10 10 115  37 20 57  118 59 40  116 33 98  124 33 57  105 5 22  41 63 57  86 116 121  7 55 3  7 53 38  47 95 42  113 100 51  111 73 19  98 13 96  74 33 39  103 14 13  29 25 72  107 36 7  53 10 104  21 121 2  31 94 28  110 63 98  103 73 31  73 38 23  114 34 7  106 100 52  34 6 28  21 82 109  103 94 28  73 26 9  9 81 71  74 61 74  90 121 106  97 83 2  87 21 117  32 93 16  120 70 51  
47 118 52  51 23 86  95 101 64  45 62 20  82 81 2  64 89 104  56 13 9  44 24 92  22 38 84  12 70 20  68 37 46  86 117 22  57 113 28  37 82 47  83 14 105  29 22 120  20 91 51  16 104 105  26 49 102  86 50 25  29 111 28  85 59 104  20 51 82  23 102 115  33 47 75  47 87 37  120 111 19  122 85 111  60 44 114  29 29 65  20 68 96  71 10 101  36 60 55  18 68 91  75 99 30  109 91 60  25 2 51  35 85 124  38 69 84  62 95 43  31 103 40  69 36 102  69 69 50  9 95 61  98 110 34  22 110 38  94 118 45  41 58 18  1 7 72  40 93 110  73 22 51  70 18 58  28 29 15  36 67 31  19 4 91  0 41 100  14 66 123  18 4 9  86 43 94  5 122 86  72 39 16  102 66 37  121 5 106  36 103 121  
87 70 104  14 4 12  123 30 103  64 95 38  45 67 0  29 70 11  82 17 67  37 96 8  89 123 60  10 14 61  91 23 41  50 59 93  123 90 99  91 16 49  89 120 53  14 37 63  89 40 40  85 62 112  108 110 50  102 108 92  94 41 24  8 84 58  85 68 64  70 116 56  33 116 19  41 48 36  52 53 91  55 51 9  107 8 30  49 95 41  51 60 64  56 34 78  46 119 81  124 95 5  8 57 99  38 81 31  26 7 77  57 59 14  69 70 27  72 82 99  79 56 61  57 45 82  10 59 16  6 105 53  38 24 38  86 106 32  95 50 98  13 52 114  4 9 88  20 19 122  19 7 100  116 16 10  17 118 121  73 20 123  0 103 12  99 116 117  102 116 97  46 61 28  83 53 65  1 73 74  38 3 25  39 94 111  108 108 101  58 47 118  
